<svg xmlns="http://www.w3.org/2000/svg" version="1.1" xmlns:xlink="http://www.w3.org/1999/xlink" xmlns:svgjs="http://svgjs.dev/svgjs" width="1000" height="623" viewBox="0 0 1000 623"><g transform="matrix(1,0,0,1,-0.6060606060606233,0.2522267206477977)"><svg viewBox="0 0 396 247" data-background-color="#ffffff" preserveAspectRatio="xMidYMid meet" height="623" width="1000" xmlns="http://www.w3.org/2000/svg" xmlns:xlink="http://www.w3.org/1999/xlink"><g id="tight-bounds" transform="matrix(1,0,0,1,0.2400000000000091,-0.09999999999999432)"><svg viewBox="0 0 395.52 247.2" height="247.2" width="395.52"><rect width="395.52" height="247.20000000000005" fill="url(#70327185-b249-4ad5-8883-bb3386e1ebc6)" mask="url(#d241e800-ab96-4c63-a6ad-1e096c11ba7c)" data-fill-palette-color="tertiary"></rect><g><svg></svg></g><g><svg viewBox="0 0 395.52 247.2" height="247.2" width="395.52"><mask id="900297f1-3ac3-4255-9592-370da67c16e7"><rect width="395.52" height="247.2" fill="white"></rect><g transform="matrix(1,0,0,1,0,65.21102324726755)" id="clone"><svg viewBox="0 0 395.52 116.77795350546491" height="116.77795350546491" width="395.52"><g><svg viewBox="0 0 395.52 116.77795350546491" height="116.77795350546491" width="395.52"><g><svg viewBox="0 0 395.52 116.77795350546491" height="116.77795350546491" width="395.52"><g><svg viewBox="0 0 395.52 116.77795350546491" height="116.77795350546491" width="395.52"><g id="SvgjsG1003"><svg viewBox="0 0 395.52 116.77795350546491" height="116.77795350546491" width="395.52" id="SvgjsSvg1002"><g><svg viewBox="0 0 395.52 68.91683827023601" height="68.91683827023601" width="395.52"><g transform="matrix(1,0,0,1,0,0)"><svg width="395.52" viewBox="0.09999999999999964 -40.5 316.59999999999997 56" height="68.91683827023601" data-palette-color="url(#1a3db440-364d-4677-9faa-dcd237a6185d)"><path d="M18.05 0L6.7 0Q5.2 0 4.15-1.05 3.1-2.1 3.1-3.6L3.1-3.6 3.1-31.45Q3.1-32.9 4.15-33.95 5.2-35 6.7-35L6.7-35 18.05-35Q19.55-35 20.6-33.95 21.65-32.9 21.65-31.45L21.65-31.45 21.65-23.65 17-24.7 17-28.6Q17-29.35 16.48-29.88 15.95-30.4 15.2-30.4L15.2-30.4 9.55-30.4Q8.8-30.4 8.28-29.88 7.75-29.35 7.75-28.6L7.75-28.6 7.75-6.45Q7.75-5.7 8.28-5.18 8.8-4.65 9.55-4.65L9.55-4.65 15.2-4.65Q15.95-4.65 16.48-5.18 17-5.7 17-6.45L17-6.45 17-11.3 12.4-11.3 13.45-15.95 21.65-15.95 21.65-3.6Q21.65-2.1 20.6-1.05 19.55 0 18.05 0L18.05 0ZM40.85 0L30.4 0Q28.9 0 27.82-1.05 26.75-2.1 26.75-3.65L26.75-3.65 26.75-11.2Q26.75-12.7 27.82-13.78 28.9-14.85 30.4-14.85L30.4-14.85 34.3-14.85Q35.1-14.85 35.62-15.38 36.15-15.9 36.15-16.65L36.15-16.65 36.15-18.5Q36.15-19.25 35.62-19.78 35.1-20.3 34.3-20.3L34.3-20.3 28.9-20.3 29.95-25 37.2-25Q38.7-25 39.77-23.93 40.85-22.85 40.85-21.35L40.85-21.35 40.85 0ZM33.25-4.7L33.25-4.7 36.15-4.7 36.15-10.15 33.25-10.15Q32.5-10.15 31.97-9.63 31.45-9.1 31.45-8.35L31.45-8.35 31.45-6.5Q31.45-5.75 31.97-5.23 32.5-4.7 33.25-4.7ZM49.05 0L44.34 0 44.34-36.35 49.05-37.4 49.05 0ZM57.74 0L53.04 0 53.04-36.35 57.74-37.4 57.74 0ZM75.34 0L64.89 0Q63.39 0 62.32-1.07 61.24-2.15 61.24-3.65L61.24-3.65 61.24-21.4Q61.24-22.9 62.32-23.95 63.39-25 64.89-25L64.89-25 71.69-25Q73.24-25 74.29-23.95 75.34-22.9 75.34-21.4L75.34-21.4 75.34-13.8Q75.34-12.3 74.29-11.23 73.24-10.15 71.69-10.15L71.69-10.15 65.94-10.15 65.94-6.5Q65.94-5.75 66.47-5.23 66.99-4.7 67.79-4.7L67.79-4.7 74.29-4.7 75.34 0ZM65.94-18.5L65.94-14.85 68.84-14.85Q69.59-14.85 70.12-15.38 70.64-15.9 70.64-16.65L70.64-16.65 70.64-18.5Q70.64-19.25 70.12-19.78 69.59-20.3 68.84-20.3L68.84-20.3 67.79-20.3Q66.99-20.3 66.47-19.78 65.94-19.25 65.94-18.5L65.94-18.5ZM82.54 0L77.84 0 77.84-25 88.29-25Q89.79-25 90.86-23.93 91.94-22.85 91.94-21.35L91.94-21.35 91.94-15.9 87.24-16.95 87.24-18.45Q87.24-19.2 86.71-19.75 86.19-20.3 85.44-20.3L85.44-20.3 82.54-20.3 82.54 0ZM99.14-32.8L94.44-31.7 94.44-36.4 99.14-37.5 99.14-32.8ZM99.23 0L94.53 0 94.53-23.9 99.23-25 99.23 0ZM116.33 0L105.88 0Q104.38 0 103.31-1.05 102.23-2.1 102.23-3.65L102.23-3.65 102.23-11.2Q102.23-12.7 103.31-13.78 104.38-14.85 105.88-14.85L105.88-14.85 109.78-14.85Q110.58-14.85 111.11-15.38 111.63-15.9 111.63-16.65L111.63-16.65 111.63-18.5Q111.63-19.25 111.11-19.78 110.58-20.3 109.78-20.3L109.78-20.3 104.38-20.3 105.43-25 112.68-25Q114.18-25 115.26-23.93 116.33-22.85 116.33-21.35L116.33-21.35 116.33 0ZM108.73-4.7L108.73-4.7 111.63-4.7 111.63-10.15 108.73-10.15Q107.98-10.15 107.46-9.63 106.93-9.1 106.93-8.35L106.93-8.35 106.93-6.5Q106.93-5.75 107.46-5.23 107.98-4.7 108.73-4.7ZM139.83 0L135.18 0 135.18-30.35 128.23-30.35 128.23-35 146.78-35 146.78-30.35 139.83-30.35 139.83 0ZM159.78 0L149.33 0Q147.83 0 146.75-1.07 145.68-2.15 145.68-3.65L145.68-3.65 145.68-21.4Q145.68-22.9 146.75-23.95 147.83-25 149.33-25L149.33-25 156.13-25Q157.68-25 158.73-23.95 159.78-22.9 159.78-21.4L159.78-21.4 159.78-13.8Q159.78-12.3 158.73-11.23 157.68-10.15 156.13-10.15L156.13-10.15 150.38-10.15 150.38-6.5Q150.38-5.75 150.9-5.23 151.43-4.7 152.23-4.7L152.23-4.7 158.73-4.7 159.78 0ZM150.38-18.5L150.38-14.85 153.28-14.85Q154.03-14.85 154.55-15.38 155.08-15.9 155.08-16.65L155.08-16.65 155.08-18.5Q155.08-19.25 154.55-19.78 154.03-20.3 153.28-20.3L153.28-20.3 152.23-20.3Q151.43-20.3 150.9-19.78 150.38-19.25 150.38-18.5L150.38-18.5ZM173.22 0L166.42 0Q164.87 0 163.82-1.07 162.77-2.15 162.77-3.65L162.77-3.65 162.77-21.35Q162.77-22.85 163.82-23.93 164.87-25 166.42-25L166.42-25 173.22-25Q174.72-25 175.8-23.93 176.87-22.85 176.87-21.35L176.87-21.35 176.87-15.9 172.17-15.9 172.17-18.5Q172.17-19.25 171.62-19.78 171.07-20.3 170.32-20.3L170.32-20.3 169.27-20.3Q168.52-20.3 168-19.78 167.47-19.25 167.47-18.5L167.47-18.5 167.47-6.5Q167.47-5.75 168-5.23 168.52-4.7 169.27-4.7L169.27-4.7 170.32-4.7Q171.07-4.7 171.62-5.23 172.17-5.75 172.17-6.5L172.17-6.5 172.17-9.1 176.87-9.1 176.87-3.65Q176.87-2.15 175.8-1.07 174.72 0 173.22 0L173.22 0ZM184.57 0L179.87 0 179.87-36.45 184.57-37.5 184.57-25 190.32-25Q191.82-25 192.87-23.93 193.92-22.85 193.92-21.35L193.92-21.35 193.92 0 189.22 0 189.22-18.5Q189.22-19.25 188.69-19.78 188.17-20.3 187.42-20.3L187.42-20.3 184.57-20.3 184.57 0ZM201.82 0L197.12 0 197.12-25 207.57-25Q209.02-25 210.12-23.95 211.22-22.9 211.22-21.4L211.22-21.4 211.22 0 206.52 0 206.52-18.5Q206.52-19.3 205.97-19.8 205.42-20.3 204.72-20.3L204.72-20.3 201.82-20.3 201.82 0ZM224.27 0L217.47 0Q215.92 0 214.87-1.07 213.82-2.15 213.82-3.65L213.82-3.65 213.82-21.35Q213.82-22.85 214.87-23.93 215.92-25 217.47-25L217.47-25 224.27-25Q225.77-25 226.82-23.93 227.87-22.85 227.87-21.35L227.87-21.35 227.87-3.65Q227.87-2.15 226.82-1.07 225.77 0 224.27 0L224.27 0ZM220.32-4.7L220.32-4.7 221.37-4.7Q222.12-4.7 222.67-5.23 223.22-5.75 223.22-6.5L223.22-6.5 223.22-18.5Q223.22-19.25 222.67-19.78 222.12-20.3 221.37-20.3L221.37-20.3 220.32-20.3Q219.57-20.3 219.04-19.78 218.52-19.25 218.52-18.5L218.52-18.5 218.52-6.5Q218.52-5.75 219.04-5.23 219.57-4.7 220.32-4.7ZM236.11 0L231.41 0 231.41-36.35 236.11-37.4 236.11 0ZM250.46 0L243.66 0Q242.11 0 241.06-1.07 240.01-2.15 240.01-3.65L240.01-3.65 240.01-21.35Q240.01-22.85 241.06-23.93 242.11-25 243.66-25L243.66-25 250.46-25Q251.96-25 253.01-23.93 254.06-22.85 254.06-21.35L254.06-21.35 254.06-3.65Q254.06-2.15 253.01-1.07 251.96 0 250.46 0L250.46 0ZM246.51-4.7L246.51-4.7 247.56-4.7Q248.31-4.7 248.86-5.23 249.41-5.75 249.41-6.5L249.41-6.5 249.41-18.5Q249.41-19.25 248.86-19.78 248.31-20.3 247.56-20.3L247.56-20.3 246.51-20.3Q245.76-20.3 245.24-19.78 244.71-19.25 244.71-18.5L244.71-18.5 244.71-6.5Q244.71-5.75 245.24-5.23 245.76-4.7 246.51-4.7ZM267.56 12.5L260.76 12.5Q259.31 12.5 258.21 11.45 257.11 10.4 257.11 8.85L257.11 8.85 257.11 3.4 261.81 4.5 261.81 6Q261.81 6.7 262.36 7.25 262.91 7.8 263.61 7.8L263.61 7.8 264.71 7.8Q265.51 7.8 266.01 7.25 266.51 6.7 266.51 6L266.51 6 266.51 0 260.76 0Q259.31 0 258.21-1.05 257.11-2.1 257.11-3.65L257.11-3.65 257.11-21.35Q257.11-22.9 258.21-23.95 259.31-25 260.76-25L260.76-25 271.21-25 271.21 8.85Q271.21 10.4 270.16 11.45 269.11 12.5 267.56 12.5L267.56 12.5ZM263.61-4.7L263.61-4.7 264.71-4.7Q265.51-4.7 266.01-5.25 266.51-5.8 266.51-6.5L266.51-6.5 266.51-20.3 263.61-20.3Q262.91-20.3 262.36-19.8 261.81-19.3 261.81-18.5L261.81-18.5 261.81-6.5Q261.81-5.8 262.36-5.25 262.91-4.7 263.61-4.7ZM279.41-32.8L274.71-31.7 274.71-36.4 279.41-37.5 279.41-32.8ZM279.51 0L274.81 0 274.81-23.9 279.51-25 279.51 0ZM293.45 0L286.65 0Q285.1 0 284.05-1.07 283-2.15 283-3.65L283-3.65 283-21.35Q283-22.85 284.05-23.93 285.1-25 286.65-25L286.65-25 293.45-25Q294.95-25 296.03-23.93 297.1-22.85 297.1-21.35L297.1-21.35 297.1-15.9 292.4-15.9 292.4-18.5Q292.4-19.25 291.85-19.78 291.3-20.3 290.55-20.3L290.55-20.3 289.5-20.3Q288.75-20.3 288.23-19.78 287.7-19.25 287.7-18.5L287.7-18.5 287.7-6.5Q287.7-5.75 288.23-5.23 288.75-4.7 289.5-4.7L289.5-4.7 290.55-4.7Q291.3-4.7 291.85-5.23 292.4-5.75 292.4-6.5L292.4-6.5 292.4-9.1 297.1-9.1 297.1-3.65Q297.1-2.15 296.03-1.07 294.95 0 293.45 0L293.45 0ZM313.7 0L303.25 0Q301.75 0 300.68-1.05 299.6-2.1 299.6-3.65L299.6-3.65 299.6-11.2Q299.6-12.7 300.68-13.78 301.75-14.85 303.25-14.85L303.25-14.85 307.15-14.85Q307.95-14.85 308.48-15.38 309-15.9 309-16.65L309-16.65 309-18.5Q309-19.25 308.48-19.78 307.95-20.3 307.15-20.3L307.15-20.3 301.75-20.3 302.8-25 310.05-25Q311.55-25 312.63-23.93 313.7-22.85 313.7-21.35L313.7-21.35 313.7 0ZM306.1-4.7L306.1-4.7 309-4.7 309-10.15 306.1-10.15Q305.35-10.15 304.83-9.63 304.3-9.1 304.3-8.35L304.3-8.35 304.3-6.5Q304.3-5.75 304.83-5.23 305.35-4.7 306.1-4.7Z" opacity="1" transform="matrix(1,0,0,1,0,0)" fill="black" class="wordmark-text-0" id="SvgjsPath1001" stroke-width="5" stroke="black" stroke-linejoin="round"></path></svg></g></svg></g><g transform="matrix(1,0,0,1,2.5,78.05922073182322)"><svg viewBox="0 0 390.52 38.71873277364169" height="38.71873277364169" width="390.52"><g transform="matrix(1,0,0,1,0,0)"><svg width="390.52" viewBox="0.08000000000000007 -42.84 577.4799999999999 57.95" height="38.71873277364169" data-palette-color="url(#69b35a50-8c0e-4273-863a-2a5dbac4ad05)"><path d="M3.08-16.5L3.08-16.5Q3.08-19.19 3.72-21.67 4.37-24.15 5.57-26.29 6.76-28.44 8.46-30.2 10.16-31.96 12.26-33.22 14.36-34.47 16.81-35.16 19.26-35.84 21.97-35.84L21.97-35.84Q24.12-35.84 25.74-35.56 27.37-35.28 28.58-34.85 29.79-34.42 30.6-33.91 31.42-33.4 31.96-32.93L31.96-32.93Q31.93-32.93 31.93-32.76L31.93-32.76Q31.93-32.4 31.99-31.42 32.06-30.44 32.14-29.25 32.23-28.05 32.29-26.82 32.35-25.59 32.35-24.68L32.35-24.68Q32.35-24.54 32.25-24.35 32.15-24.17 31.76-24.17L31.76-24.17Q31.54-24.17 31.23-24.24L31.23-24.24Q30.71-24.39 29.93-24.91 29.15-25.44 28.11-26.01 27.08-26.59 25.79-27.04 24.51-27.49 23-27.49L23-27.49Q21-27.49 19.36-26.7 17.72-25.9 16.58-24.51 15.43-23.12 14.79-21.2 14.16-19.29 14.16-17.02L14.16-17.02Q14.16-15.01 14.6-13.2 15.04-11.38 15.93-10.01 16.82-8.64 18.15-7.82 19.48-7.01 21.24-7.01L21.24-7.01Q22.63-7.01 23.71-7.1 24.78-7.2 25.71-7.42 26.64-7.64 27.53-8.01 28.42-8.37 29.44-8.94L29.44-8.94Q29.49-8.96 29.69-8.96L29.69-8.96Q29.86-8.96 29.92-8.83 29.98-8.69 29.98-8.28L29.98-8.28 29.98-5.35Q29.98-4.54 29.97-3.77 29.96-3 29.94-2.39 29.93-1.78 29.92-1.4 29.91-1.03 29.88-1.03L29.88-1.03Q28.76-0.32 27.48 0.13 26.2 0.59 24.84 0.84 23.49 1.1 22.12 1.18 20.75 1.27 19.48 1.27L19.48 1.27Q16.04 1.27 13.04-0.04 10.03-1.34 7.82-3.69 5.62-6.03 4.35-9.3 3.08-12.57 3.08-16.5ZM55.65-10.35L55.65-10.35Q55.97-13.7 56.28-16.97 56.6-20.24 56.85-23.68L56.85-23.68Q56.89-24.49 57-24.79 57.11-25.1 57.55-25.2L57.55-25.2Q59.63-25.61 61.9-26.06 64.17-26.51 66.29-27.22L66.29-27.22Q66.37-27.25 66.51-27.25L66.51-27.25Q66.78-27.25 66.78-27.05L66.78-27.05 64.59-3.27Q64.51-2.47 64.41-2.16 64.32-1.86 63.88-1.76L63.88-1.76Q61.8-1.12 59.68-0.34 57.55 0.44 55.19 1.25L55.19 1.25Q55.11 1.27 54.97 1.27L54.97 1.27Q54.7 1.27 54.7 1.03L54.7 1.03Q54.7 1 54.75 0.37 54.8-0.27 54.88-1.27 54.97-2.27 55.06-3.52 55.16-4.76 55.27-6.01 55.38-7.25 55.48-8.4 55.58-9.55 55.65-10.35ZM57.48-29.83L57.48-29.83Q57.55-30.88 57.59-31.45 57.63-32.01 57.65-32.29 57.68-32.57 57.68-32.64 57.68-32.71 57.69-32.75 57.7-32.79 57.71-32.9 57.72-33.01 57.75-33.36 57.77-33.72 57.82-34.4 57.87-35.08 57.97-36.28L57.97-36.28Q58.02-37.08 58.13-37.39 58.24-37.7 58.68-37.79L58.68-37.79Q60.75-38.21 63.02-38.66 65.29-39.11 67.42-39.82L67.42-39.82Q67.49-39.84 67.64-39.84L67.64-39.84Q67.71-39.7 67.83-39.65L67.83-39.65 67.91-39.6 67.37-32.91Q67.3-32.1 67.19-31.79 67.08-31.47 66.66-31.4L66.66-31.4Q64.59-31.01 62.46-30.54 60.34-30.08 57.97-29.61L57.97-29.61Q57.9-29.59 57.75-29.59L57.75-29.59Q57.48-29.59 57.48-29.83ZM117.89-27.66L115.38-4.91Q115.35-4.81 115.35-4.72 115.35-4.64 115.35-4.57L115.35-4.57Q115.35-3.96 115.55-3.55 115.74-3.15 115.97-2.89 116.21-2.64 116.4-2.48 116.6-2.32 116.6-2.2L116.6-2.2Q116.6-1.86 115.86-1.56L115.86-1.56 109.3 1.25Q109.27 1.27 109.13 1.27L109.13 1.27Q108.93 1.27 108.74 0.93 108.54 0.59 108.36 0.06 108.17-0.46 108.02-1.06 107.86-1.66 107.73-2.17L107.73-2.17Q106.2-0.39 104.41 0.44 102.63 1.27 100.87 1.27L100.87 1.27Q98.82 1.27 96.87 0.37 94.92-0.54 93.4-2.21 91.89-3.88 90.97-6.25 90.06-8.62 90.06-11.57L90.06-11.57Q90.06-15.06 91.07-17.94 92.09-20.83 93.82-22.9 95.55-24.98 97.86-26.11 100.17-27.25 102.75-27.25L102.75-27.25Q104.59-27.25 106.22-26.5 107.86-25.76 109.32-24.58L109.32-24.58Q109.47-25.32 109.49-25.76 109.52-26.2 109.6-26.44 109.69-26.68 109.93-26.77 110.18-26.86 110.74-26.9L110.74-26.9Q112.5-27.15 114.24-27.36 115.99-27.56 117.89-27.66L117.89-27.66ZM107.05-6.88L108.08-14.11Q108.32-15.5 108.41-16.74 108.49-17.97 108.54-18.99L108.54-18.99Q108.15-19.29 107.7-19.6 107.25-19.92 106.72-20.2 106.2-20.48 105.62-20.65 105.05-20.83 104.41-20.83L104.41-20.83Q103.1-20.83 102.21-19.97 101.31-19.12 100.76-17.87 100.22-16.63 99.98-15.23 99.75-13.84 99.75-12.77L99.75-12.77Q99.75-8.91 100.76-7.12 101.78-5.32 103.58-5.32L103.58-5.32Q104.32-5.32 105.22-5.74 106.12-6.15 107.05-6.88L107.05-6.88ZM154.84 1.27L154.84 1.27Q151.4 1.27 148.8 0.15 146.2-0.98 144.44-2.84 142.68-4.71 141.8-7.14 140.92-9.57 140.92-12.18L140.92-12.18Q140.92-14.79 141.78-17.15 142.63-19.51 144.17-21.37 145.71-23.24 147.86-24.5 150.01-25.76 152.59-26.2L152.59-26.2Q152.98-26.22 152.98-26.37L152.98-26.37Q152.98-26.64 152.92-26.87 152.86-27.1 152.86-27.27L152.86-27.27Q152.86-27.54 152.96-27.64 153.06-27.73 153.18-27.73L153.18-27.73Q157.84-27.73 161.11-26.67 164.39-25.61 166.44-23.78 168.49-21.95 169.41-19.46 170.34-16.97 170.34-14.11L170.34-14.11Q170.34-10.47 169.12-7.62 167.9-4.76 165.79-2.78 163.68-0.81 160.86 0.23 158.04 1.27 154.84 1.27ZM150.32-12.45L150.32-12.45Q150.32-11.13 150.6-9.84 150.88-8.54 151.53-7.5 152.18-6.45 153.23-5.8 154.28-5.15 155.84-5.15L155.84-5.15Q156.96-5.2 157.81-5.65 158.65-6.1 159.26-6.82 159.87-7.54 160.27-8.45 160.67-9.35 160.91-10.31 161.14-11.28 161.24-12.21 161.33-13.13 161.33-13.89L161.33-13.89Q161.33-15.16 160.96-16.38 160.58-17.6 159.84-18.53 159.11-19.46 158.03-20.03 156.94-20.61 155.52-20.61L155.52-20.61Q154.06-20.61 153.06-19.74 152.06-18.87 151.46-17.6 150.86-16.33 150.59-14.93 150.32-13.53 150.32-12.45ZM204.07-28.56L204.07-28.56Q203.29-24.76 202.54-20.96 201.8-17.16 201.16-13.28L201.16-13.28Q201.11-12.48 201-12.16 200.89-11.84 200.46-11.77L200.46-11.77Q199.5-11.6 198.58-11.4 197.65-11.21 196.62-10.94L196.62-10.94Q196.43-10.94 196.39-11 196.35-11.06 196.35-11.18L196.35-11.18 196.11-35.3Q196.16-36.08 196.28-36.4 196.4-36.72 196.82-36.82L196.82-36.82Q198.89-37.28 201.02-37.88 203.14-38.48 205.51-39.09L205.51-39.09Q205.58-39.11 205.73-39.11L205.73-39.11Q206-39.11 206-38.87L206-38.87Q206-38.84 205.9-38.27 205.8-37.7 205.64-36.79 205.48-35.89 205.29-34.75 205.09-33.62 204.87-32.48 204.65-31.35 204.45-30.31 204.24-29.27 204.07-28.56ZM203.21-8.35L203.21-8.35Q203.14-7.3 203.1-6.74 203.07-6.18 203.04-5.9 203.02-5.62 203.02-5.54 203.02-5.47 203.01-5.43 202.99-5.4 202.98-5.29 202.97-5.18 202.95-4.82 202.92-4.47 202.87-3.78 202.82-3.1 202.73-1.9L202.73-1.9Q202.68-1.1 202.57-0.79 202.46-0.49 202.02-0.39L202.02-0.39Q199.94 0.02 197.67 0.48 195.4 0.93 193.28 1.64L193.28 1.64Q193.2 1.66 193.06 1.66L193.06 1.66 192.84 1.46Q192.79 1.42 192.79 1.42L192.79 1.42 193.33-5.27Q193.38-6.05 193.48-6.37 193.59-6.69 194.03-6.79L194.03-6.79Q196.11-7.15 198.23-7.62 200.36-8.08 202.73-8.57L202.73-8.57Q202.8-8.59 202.95-8.59L202.95-8.59Q203.21-8.59 203.21-8.35ZM270.1-17.41L270.03-17.04Q269.88-14.7 269.77-13.23 269.66-11.77 269.59-10.85 269.52-9.94 269.47-9.41 269.42-8.89 269.4-8.42L269.4-8.42Q269.96-6.96 271.06-6.04 272.15-5.13 273.69-5.13L273.69-5.13Q275.04-5.13 276.05-5.97 277.06-6.81 277.73-8.15 278.4-9.5 278.75-11.16 279.09-12.82 279.09-14.45L279.09-14.45Q279.09-15.8 278.86-16.94 278.62-18.09 278.16-18.93 277.7-19.78 277-20.25 276.31-20.73 275.35-20.73L275.35-20.73Q274.57-20.73 273.8-20.42 273.03-20.12 272.33-19.64 271.62-19.17 271.04-18.57 270.47-17.97 270.1-17.41L270.1-17.41ZM270.52-24.19L270.52-24.19Q272.57-25.59 274.82-26.42 277.06-27.25 279.5-27.25L279.5-27.25Q281.8-27.25 283.47-26.31 285.14-25.37 286.24-23.77 287.34-22.17 287.87-20.09 288.39-18.02 288.39-15.75L288.39-15.75Q288.39-13.77 288-11.74 287.61-9.72 286.85-7.82 286.1-5.93 284.97-4.27 283.85-2.61 282.4-1.38 280.94-0.15 279.16 0.56 277.38 1.27 275.3 1.27L275.3 1.27Q273.47 1.27 271.8 0.54 270.13-0.2 268.66-1.37L268.66-1.37Q268.66-1.25 268.6-0.48 268.54 0.29 268.44 1.39 268.35 2.49 268.22 3.75 268.1 5 268 6.1 267.91 7.2 267.85 7.97 267.78 8.74 267.78 8.86L267.78 8.86Q267.78 9.06 267.8 9.19 267.81 9.33 267.81 9.45L267.81 9.45Q267.81 9.64 267.63 9.78 267.44 9.91 266.81 10.08L266.81 10.08 260.39 11.72Q260.12 11.79 259.68 11.95 259.24 12.11 258.82 12.11L258.82 12.11Q258.48 12.11 258.23 11.94 257.97 11.77 257.97 11.3L257.97 11.3 260.95-24.44Q261.02-25.24 261.13-25.55 261.24-25.85 261.68-25.95L261.68-25.95Q263.9-26.39 266.25-26.84 268.59-27.29 270.81-28L270.81-28Q271.01-28 271.04-27.94 271.08-27.88 271.08-27.76L271.08-27.76Q271.08-27.71 271.07-27.61 271.06-27.51 271-27.17 270.93-26.83 270.82-26.14 270.71-25.44 270.52-24.19ZM326.51-27.25L326.51-27.25Q328.83-27.25 330.72-26.38 332.61-25.51 333.97-24.13 335.32-22.75 336.06-21.04 336.79-19.34 336.79-17.63L336.79-17.63Q336.79-16.11 335.86-14.59 334.93-13.06 333.26-11.84 331.59-10.62 329.25-9.86 326.9-9.11 324.09-9.11L324.09-9.11Q322.63-9.11 321.02-9.4L321.02-9.4Q321.12-8.35 321.63-7.59 322.14-6.84 322.92-6.35 323.7-5.86 324.69-5.63 325.68-5.4 326.73-5.4L326.73-5.4Q327.9-5.4 328.99-5.6 330.08-5.81 331.08-6.15 332.08-6.49 333-6.91 333.93-7.32 334.76-7.74L334.76-7.74Q334.98-7.79 335.14-7.82 335.3-7.86 335.45-7.86L335.45-7.86Q335.45-7.86 335.43-7.47 335.42-7.08 335.42-6.37 335.42-5.66 335.41-4.66 335.4-3.66 335.37-2.44L335.37-2.44Q335.45-2.32 335.47-2.2 335.5-2.08 335.5-2L335.5-2Q335.5-1.71 334.96-1.37 334.42-1.03 333.55-0.66 332.69-0.29 331.58 0.05 330.47 0.39 329.32 0.67 328.17 0.95 327.1 1.11 326.02 1.27 325.22 1.27L325.22 1.27Q322.58 1.27 320.1 0.35 317.62-0.56 315.71-2.27 313.79-3.98 312.64-6.42 311.5-8.86 311.5-11.91L311.5-11.91Q311.5-15.11 312.59-17.91 313.69-20.7 315.68-22.78 317.67-24.85 320.43-26.05 323.19-27.25 326.51-27.25ZM326.22-20.75L326.22-20.75Q325.22-20.75 324.37-20.32 323.53-19.9 322.84-19.1 322.14-18.31 321.63-17.2 321.12-16.09 320.8-14.75L320.8-14.75Q323.31-15.19 324.97-15.67 326.63-16.16 327.63-16.66 328.63-17.16 329.05-17.66 329.46-18.16 329.46-18.63L329.46-18.63Q329.46-19.07 329.14-19.46 328.81-19.85 328.32-20.14 327.83-20.43 327.26-20.59 326.68-20.75 326.22-20.75ZM381.82-27.44L380.3-19.87Q379.79-19.92 379.16-19.98 378.52-20.04 377.81-20.04L377.81-20.04Q376.74-20.04 375.63-19.86 374.52-19.68 373.57-19.14 372.61-18.6 371.93-17.66 371.25-16.72 371.05-15.23L371.05-15.23Q370.88-13.43 370.77-12.27 370.66-11.11 370.61-10.36 370.56-9.62 370.53-9.17 370.49-8.72 370.47-8.33L370.47-8.33Q370.47-8.23 370.43-7.79 370.39-7.35 370.32-6.76 370.25-6.18 370.19-5.49 370.12-4.81 370.05-4.22 369.98-3.64 369.94-3.2 369.9-2.76 369.9-2.66L369.9-2.66Q369.9-2.47 369.92-2.33 369.93-2.2 369.93-2.08L369.93-2.08Q369.93-1.88 369.75-1.75 369.56-1.61 368.93-1.44L368.93-1.44 362.46 0.88Q362.19 0.98 361.75 1.12 361.31 1.27 360.9 1.27L360.9 1.27Q360.55 1.27 360.3 1.1 360.04 0.93 360.04 0.51L360.04 0.51 362.14-23.68Q362.21-24.49 362.32-24.79 362.43-25.1 362.87-25.2L362.87-25.2Q365.09-25.63 367.46-26.09 369.83-26.54 372.05-27.25L372.05-27.25Q372.25-27.25 372.28-27.19 372.32-27.12 372.32-27L372.32-27Q372.32-26.95 372.31-26.86 372.3-26.76 372.24-26.42 372.18-26.07 372.07-25.38 371.96-24.68 371.76-23.44L371.76-23.44Q372.88-24.32 374.24-25.05 375.59-25.78 376.96-26.31 378.33-26.83 379.6-27.14 380.87-27.44 381.82-27.44L381.82-27.44ZM403.34-0.07L403.02-6.74Q403.02-6.76 403.01-6.77 403-6.79 403-6.81L403-6.81Q403-7.13 403.34-7.13L403.34-7.13Q403.56-7.13 403.73-6.96L403.73-6.96Q404.7-6.03 405.96-5.44 407.22-4.86 408.68-4.86L408.68-4.86Q409.07-4.86 409.59-4.94 410.1-5.03 410.56-5.22 411.03-5.42 411.33-5.75 411.64-6.08 411.64-6.57L411.64-6.57Q411.64-7.1 411.37-7.56 411.1-8.01 410.66-8.3L410.66-8.3Q410.42-8.47 409.81-8.9 409.2-9.33 408.5-9.81 407.81-10.3 407.18-10.74 406.56-11.18 406.32-11.38L406.32-11.38Q405.22-12.21 404.57-13.06 403.92-13.92 403.58-14.83 403.24-15.75 403.14-16.75 403.04-17.75 403.04-18.87L403.04-18.87Q403.04-20.58 403.95-22.09 404.85-23.61 406.33-24.76 407.81-25.9 409.69-26.57 411.56-27.25 413.52-27.25L413.52-27.25Q415.13-27.25 416.69-26.76 418.25-26.27 419.6-25.1L419.6-25.1Q419.72-23.56 419.77-22.07 419.82-20.58 419.91-18.95L419.91-18.95Q419.91-18.63 419.77-18.52 419.62-18.41 419.43-18.41L419.43-18.41Q419.26-18.41 419.13-18.53L419.13-18.53Q418.57-19.07 417.99-19.59 417.4-20.12 416.75-20.52 416.11-20.92 415.37-21.18 414.64-21.44 413.81-21.44L413.81-21.44Q413.3-21.44 412.79-21.35 412.27-21.26 411.86-21.03 411.44-20.8 411.19-20.41 410.93-20.02 410.93-19.41L410.93-19.41Q410.93-18.7 411.1-18.19 411.27-17.68 411.91-17.19L411.91-17.19 416.45-14.11Q417.69-13.26 418.46-12.44 419.23-11.62 419.67-10.82 420.11-10.01 420.27-9.22 420.43-8.42 420.43-7.64L420.43-7.64Q420.43-5.44 419.41-3.77 418.4-2.1 416.79-0.99 415.18 0.12 413.14 0.7 411.1 1.27 409.05 1.27L409.05 1.27Q407.49 1.27 406.04 0.94 404.58 0.61 403.34-0.07L403.34-0.07ZM457.84 1.27L457.84 1.27Q454.4 1.27 451.8 0.15 449.2-0.98 447.44-2.84 445.68-4.71 444.8-7.14 443.92-9.57 443.92-12.18L443.92-12.18Q443.92-14.79 444.78-17.15 445.63-19.51 447.17-21.37 448.71-23.24 450.86-24.5 453.01-25.76 455.59-26.2L455.59-26.2Q455.98-26.22 455.98-26.37L455.98-26.37Q455.98-26.64 455.92-26.87 455.86-27.1 455.86-27.27L455.86-27.27Q455.86-27.54 455.96-27.64 456.06-27.73 456.18-27.73L456.18-27.73Q460.84-27.73 464.11-26.67 467.39-25.61 469.44-23.78 471.49-21.95 472.41-19.46 473.34-16.97 473.34-14.11L473.34-14.11Q473.34-10.47 472.12-7.62 470.9-4.76 468.79-2.78 466.68-0.81 463.86 0.23 461.04 1.27 457.84 1.27ZM453.32-12.45L453.32-12.45Q453.32-11.13 453.6-9.84 453.88-8.54 454.53-7.5 455.18-6.45 456.23-5.8 457.28-5.15 458.84-5.15L458.84-5.15Q459.96-5.2 460.81-5.65 461.65-6.1 462.26-6.82 462.87-7.54 463.27-8.45 463.67-9.35 463.91-10.31 464.14-11.28 464.24-12.21 464.33-13.13 464.33-13.89L464.33-13.89Q464.33-15.16 463.96-16.38 463.58-17.6 462.84-18.53 462.11-19.46 461.03-20.03 459.94-20.61 458.52-20.61L458.52-20.61Q457.06-20.61 456.06-19.74 455.06-18.87 454.46-17.6 453.86-16.33 453.59-14.93 453.32-13.53 453.32-12.45ZM523.16-0.78L517.22 0.88Q516.96 0.95 516.52 1.11 516.08 1.27 515.66 1.27L515.66 1.27Q515.32 1.27 515.06 1.1 514.81 0.93 514.81 0.51L514.81 0.51 514.81 0.37Q514.95-0.95 515.05-1.87 515.15-2.78 515.23-3.53 515.32-4.27 515.38-5.02 515.44-5.76 515.54-6.75 515.64-7.74 515.77-9.09 515.91-10.45 516.1-12.48L516.1-12.48Q516.22-13.72 516.32-15.01 516.42-16.31 516.42-17.41L516.42-17.41Q516.42-18.14 516.31-18.76 516.2-19.38 515.92-19.84 515.64-20.29 515.15-20.53 514.66-20.78 513.9-20.78L513.9-20.78Q513.34-20.78 512.35-20.53 511.37-20.29 510.39-19.73 509.41-19.17 508.66-18.25 507.9-17.33 507.8-15.99L507.8-15.99Q507.65-14.18 507.53-12.9 507.41-11.62 507.31-10.73 507.21-9.84 507.15-9.28 507.09-8.72 507.07-8.33L507.07-8.33Q507.04-8.23 507-7.79 506.95-7.35 506.89-6.74 506.82-6.13 506.76-5.44 506.7-4.76 506.64-4.15 506.58-3.54 506.54-3.1 506.51-2.66 506.51-2.56L506.51-2.56Q506.51-2.37 506.52-2.23 506.53-2.1 506.53-1.98L506.53-1.98Q506.53-1.78 506.35-1.65 506.17-1.51 505.53-1.34L505.53-1.34 499.06 0.88Q498.79 0.98 498.35 1.12 497.91 1.27 497.5 1.27L497.5 1.27Q497.16 1.27 496.9 1.1 496.64 0.93 496.64 0.51L496.64 0.51 498.87-24.44Q498.94-25.24 499.05-25.55 499.16-25.85 499.6-25.95L499.6-25.95Q501.82-26.39 504.16-26.84 506.51-27.29 508.73-28L508.73-28Q508.92-28 508.96-27.94 509-27.88 509-27.76L509-27.76Q509-27.71 508.98-27.61 508.97-27.51 508.91-27.17 508.85-26.83 508.74-26.14 508.63-25.44 508.44-24.19L508.44-24.19Q510.12-25.17 511.6-25.77 513.07-26.37 514.38-26.7 515.69-27.03 516.83-27.14 517.98-27.25 518.98-27.25L518.98-27.25Q522.42-27.25 523.99-25.16 525.55-23.07 525.55-18.9L525.55-18.9Q525.55-18.31 525.53-17.69 525.5-17.07 525.43-16.41L525.43-16.41 524.3-5.91Q524.18-4.88 524.16-4.02 524.13-3.15 524.13-2L524.13-2Q524.13-1.81 524.15-1.67 524.16-1.54 524.16-1.44L524.16-1.44Q524.16-1.22 523.98-1.1 523.79-0.98 523.16-0.78L523.16-0.78ZM564.28-27.25L564.28-27.25Q566.6-27.25 568.49-26.38 570.38-25.51 571.74-24.13 573.09-22.75 573.83-21.04 574.56-19.34 574.56-17.63L574.56-17.63Q574.56-16.11 573.63-14.59 572.7-13.06 571.03-11.84 569.36-10.62 567.01-9.86 564.67-9.11 561.86-9.11L561.86-9.11Q560.4-9.11 558.79-9.4L558.79-9.4Q558.89-8.35 559.4-7.59 559.91-6.84 560.69-6.35 561.47-5.86 562.46-5.63 563.45-5.4 564.5-5.4L564.5-5.4Q565.67-5.4 566.76-5.6 567.85-5.81 568.85-6.15 569.85-6.49 570.77-6.91 571.7-7.32 572.53-7.74L572.53-7.74Q572.75-7.79 572.91-7.82 573.07-7.86 573.22-7.86L573.22-7.86Q573.22-7.86 573.2-7.47 573.19-7.08 573.19-6.37 573.19-5.66 573.18-4.66 573.17-3.66 573.14-2.44L573.14-2.44Q573.22-2.32 573.24-2.2 573.26-2.08 573.26-2L573.26-2Q573.26-1.71 572.73-1.37 572.19-1.03 571.32-0.66 570.46-0.29 569.35 0.05 568.24 0.39 567.09 0.67 565.94 0.95 564.87 1.11 563.79 1.27 562.99 1.27L562.99 1.27Q560.35 1.27 557.87 0.35 555.39-0.56 553.48-2.27 551.56-3.98 550.41-6.42 549.27-8.86 549.27-11.91L549.27-11.91Q549.27-15.11 550.36-17.91 551.46-20.7 553.45-22.78 555.44-24.85 558.2-26.05 560.96-27.25 564.28-27.25ZM563.99-20.75L563.99-20.75Q562.99-20.75 562.14-20.32 561.3-19.9 560.61-19.1 559.91-18.31 559.4-17.2 558.89-16.09 558.57-14.75L558.57-14.75Q561.08-15.19 562.74-15.67 564.4-16.16 565.4-16.66 566.4-17.16 566.82-17.66 567.23-18.16 567.23-18.63L567.23-18.63Q567.23-19.07 566.91-19.46 566.58-19.85 566.09-20.14 565.6-20.43 565.03-20.59 564.45-20.75 563.99-20.75Z" opacity="1" transform="matrix(1,0,0,1,0,0)" fill="black" class="slogan-text-1" id="SvgjsPath1000" stroke-width="5" stroke="black" stroke-linejoin="round"></path></svg></g></svg></g></svg></g></svg></g></svg></g></svg></g></svg></g></mask><g mask="url(#900297f1-3ac3-4255-9592-370da67c16e7)"><g><path d="M106.579 247.2h-80.164c-7.063 0-13.066-2.472-18.01-7.416-4.944-4.944-7.416-10.947-7.416-18.01v0-196.701c0-6.827 2.472-12.713 7.416-17.657 4.944-4.944 10.947-7.416 18.01-7.416v0h80.164c7.063 0 13.066 2.472 18.01 7.416 4.944 4.944 7.416 10.83 7.416 17.657v0 55.09l-32.842-7.416v-27.545c0-3.531-1.224-6.545-3.673-9.04-2.496-2.448-5.509-3.673-9.041-3.673v0h-39.905c-3.531 0-6.521 1.224-8.97 3.673-2.496 2.496-3.743 5.509-3.743 9.04v0 156.443c0 3.531 1.248 6.521 3.743 8.969 2.448 2.496 5.438 3.743 8.97 3.744v0h39.905c3.531 0 6.545-1.248 9.041-3.744 2.448-2.448 3.673-5.438 3.673-8.969v0-34.255h-32.49l7.416-32.843h57.916v87.227c0 7.063-2.472 13.066-7.416 18.01-4.944 4.944-10.947 7.416-18.01 7.416zM345.444 247.2h-32.842v-214.358h-49.087v-32.842h131.016v32.842h-49.087z" fill="url(#70327185-b249-4ad5-8883-bb3386e1ebc6)" fill-rule="nonzero" stroke="none" stroke-width="1" stroke-linecap="butt" stroke-linejoin="miter" stroke-miterlimit="10" stroke-dasharray="" stroke-dashoffset="0" font-family="none" font-weight="none" font-size="none" text-anchor="none" style="mix-blend-mode: normal" data-fill-palette-color="tertiary"></path></g></g><g transform="matrix(1,0,0,1,0,65.21102324726755)"><svg viewBox="0 0 395.52 116.77795350546491" height="116.77795350546491" width="395.52"><g><svg viewBox="0 0 395.52 116.77795350546491" height="116.77795350546491" width="395.52"><g><svg viewBox="0 0 395.52 116.77795350546491" height="116.77795350546491" width="395.52"><g><svg viewBox="0 0 395.52 116.77795350546491" height="116.77795350546491" width="395.52"><g id="textblocktransform"><svg viewBox="0 0 395.52 116.77795350546491" height="116.77795350546491" width="395.52" id="textblock"><g><svg viewBox="0 0 395.52 68.91683827023601" height="68.91683827023601" width="395.52"><g transform="matrix(1,0,0,1,0,0)"><svg width="395.52" viewBox="0.09999999999999964 -40.5 316.59999999999997 56" height="68.91683827023601" data-palette-color="url(#1a3db440-364d-4677-9faa-dcd237a6185d)"></svg></g></svg></g><g transform="matrix(1,0,0,1,2.5,78.05922073182322)"><svg viewBox="0 0 390.52 38.71873277364169" height="38.71873277364169" width="390.52"><g transform="matrix(1,0,0,1,0,0)"><svg width="390.52" viewBox="0.08000000000000007 -42.84 577.4799999999999 57.95" height="38.71873277364169" data-palette-color="url(#69b35a50-8c0e-4273-863a-2a5dbac4ad05)"></svg></g></svg></g></svg></g></svg></g></svg></g></svg></g></svg></g></svg></g><defs></defs><mask id="e59eb423-3a43-412e-86e9-33a272e1a21a"><g id="SvgjsG1015"><svg viewBox="0 0 395.52 247.2" height="247.2" width="395.52"><g><svg></svg></g><g><svg viewBox="0 0 395.52 247.2" height="247.2" width="395.52"><mask id="SvgjsMask1014"><g transform="matrix(1,0,0,1,0,65.21102324726755)" id="SvgjsG1013"><svg viewBox="0 0 395.52 116.77795350546491" height="116.77795350546491" width="395.52"><g><svg viewBox="0 0 395.52 116.77795350546491" height="116.77795350546491" width="395.52"><g><svg viewBox="0 0 395.52 116.77795350546491" height="116.77795350546491" width="395.52"><g><svg viewBox="0 0 395.52 116.77795350546491" height="116.77795350546491" width="395.52"><g id="SvgjsG1012"><svg viewBox="0 0 395.52 116.77795350546491" height="116.77795350546491" width="395.52" id="SvgjsSvg1011"><g><svg viewBox="0 0 395.52 68.91683827023601" height="68.91683827023601" width="395.52"><g transform="matrix(1,0,0,1,0,0)"><svg width="395.52" viewBox="0.09999999999999964 -40.5 316.59999999999997 56" height="68.91683827023601" data-palette-color="url(#1a3db440-364d-4677-9faa-dcd237a6185d)"></svg></g></svg></g><g transform="matrix(1,0,0,1,2.5,78.05922073182322)"><svg viewBox="0 0 390.52 38.71873277364169" height="38.71873277364169" width="390.52"><g transform="matrix(1,0,0,1,0,0)"><svg width="390.52" viewBox="0.08000000000000007 -42.84 577.4799999999999 57.95" height="38.71873277364169" data-palette-color="url(#69b35a50-8c0e-4273-863a-2a5dbac4ad05)"></svg></g></svg></g></svg></g></svg></g></svg></g></svg></g></svg></g></mask><g mask="url(#900297f1-3ac3-4255-9592-370da67c16e7)"><g></g></g><g transform="matrix(1,0,0,1,0,65.21102324726755)"><svg viewBox="0 0 395.52 116.77795350546491" height="116.77795350546491" width="395.52"><g><svg viewBox="0 0 395.52 116.77795350546491" height="116.77795350546491" width="395.52"><g><svg viewBox="0 0 395.52 116.77795350546491" height="116.77795350546491" width="395.52"><g><svg viewBox="0 0 395.52 116.77795350546491" height="116.77795350546491" width="395.52"><g id="SvgjsG1008"><svg viewBox="0 0 395.52 116.77795350546491" height="116.77795350546491" width="395.52" id="SvgjsSvg1007"><g><svg viewBox="0 0 395.52 68.91683827023601" height="68.91683827023601" width="395.52"><g transform="matrix(1,0,0,1,0,0)"><svg width="395.52" viewBox="0.09999999999999964 -40.5 316.59999999999997 56" height="68.91683827023601" data-palette-color="url(#1a3db440-364d-4677-9faa-dcd237a6185d)"><path d="M18.05 0L6.7 0Q5.2 0 4.15-1.05 3.1-2.1 3.1-3.6L3.1-3.6 3.1-31.45Q3.1-32.9 4.15-33.95 5.2-35 6.7-35L6.7-35 18.05-35Q19.55-35 20.6-33.95 21.65-32.9 21.65-31.45L21.65-31.45 21.65-23.65 17-24.7 17-28.6Q17-29.35 16.48-29.88 15.95-30.4 15.2-30.4L15.2-30.4 9.55-30.4Q8.8-30.4 8.28-29.88 7.75-29.35 7.75-28.6L7.75-28.6 7.75-6.45Q7.75-5.7 8.28-5.18 8.8-4.65 9.55-4.65L9.55-4.65 15.2-4.65Q15.95-4.65 16.48-5.18 17-5.7 17-6.45L17-6.45 17-11.3 12.4-11.3 13.45-15.95 21.65-15.95 21.65-3.6Q21.65-2.1 20.6-1.05 19.55 0 18.05 0L18.05 0ZM40.85 0L30.4 0Q28.9 0 27.82-1.05 26.75-2.1 26.75-3.65L26.75-3.65 26.75-11.2Q26.75-12.7 27.82-13.78 28.9-14.85 30.4-14.85L30.4-14.85 34.3-14.85Q35.1-14.85 35.62-15.38 36.15-15.9 36.15-16.65L36.15-16.65 36.15-18.5Q36.15-19.25 35.62-19.78 35.1-20.3 34.3-20.3L34.3-20.3 28.9-20.3 29.95-25 37.2-25Q38.7-25 39.77-23.93 40.85-22.85 40.85-21.35L40.85-21.35 40.85 0ZM33.25-4.7L33.25-4.7 36.15-4.7 36.15-10.15 33.25-10.15Q32.5-10.15 31.97-9.63 31.45-9.1 31.45-8.35L31.45-8.35 31.45-6.5Q31.45-5.75 31.97-5.23 32.5-4.7 33.25-4.7ZM49.05 0L44.34 0 44.34-36.35 49.05-37.4 49.05 0ZM57.74 0L53.04 0 53.04-36.35 57.74-37.4 57.74 0ZM75.34 0L64.89 0Q63.39 0 62.32-1.07 61.24-2.15 61.24-3.65L61.24-3.65 61.24-21.4Q61.24-22.9 62.32-23.95 63.39-25 64.89-25L64.89-25 71.69-25Q73.24-25 74.29-23.95 75.34-22.9 75.34-21.4L75.34-21.4 75.34-13.8Q75.34-12.3 74.29-11.23 73.24-10.15 71.69-10.15L71.69-10.15 65.94-10.15 65.94-6.5Q65.94-5.75 66.47-5.23 66.99-4.7 67.79-4.7L67.79-4.7 74.29-4.7 75.34 0ZM65.94-18.5L65.94-14.85 68.84-14.85Q69.59-14.85 70.12-15.38 70.64-15.9 70.64-16.65L70.64-16.65 70.64-18.5Q70.64-19.25 70.12-19.78 69.59-20.3 68.84-20.3L68.84-20.3 67.79-20.3Q66.99-20.3 66.47-19.78 65.94-19.25 65.94-18.5L65.94-18.5ZM82.54 0L77.84 0 77.84-25 88.29-25Q89.79-25 90.86-23.93 91.94-22.85 91.94-21.35L91.94-21.35 91.94-15.9 87.24-16.95 87.24-18.45Q87.24-19.2 86.71-19.75 86.19-20.3 85.44-20.3L85.44-20.3 82.54-20.3 82.54 0ZM99.14-32.8L94.44-31.7 94.44-36.4 99.14-37.5 99.14-32.8ZM99.23 0L94.53 0 94.53-23.9 99.23-25 99.23 0ZM116.33 0L105.88 0Q104.38 0 103.31-1.05 102.23-2.1 102.23-3.65L102.23-3.65 102.23-11.2Q102.23-12.7 103.31-13.78 104.38-14.85 105.88-14.85L105.88-14.85 109.78-14.85Q110.58-14.85 111.11-15.38 111.63-15.9 111.63-16.65L111.63-16.65 111.63-18.5Q111.63-19.25 111.11-19.78 110.58-20.3 109.78-20.3L109.78-20.3 104.38-20.3 105.43-25 112.68-25Q114.18-25 115.26-23.93 116.33-22.85 116.33-21.35L116.33-21.35 116.33 0ZM108.73-4.7L108.73-4.7 111.63-4.7 111.63-10.15 108.73-10.15Q107.98-10.15 107.46-9.63 106.93-9.1 106.93-8.35L106.93-8.35 106.93-6.5Q106.93-5.75 107.46-5.23 107.98-4.7 108.73-4.7ZM139.83 0L135.18 0 135.18-30.35 128.23-30.35 128.23-35 146.78-35 146.78-30.35 139.83-30.35 139.83 0ZM159.78 0L149.33 0Q147.83 0 146.75-1.07 145.68-2.15 145.68-3.65L145.68-3.65 145.68-21.4Q145.68-22.9 146.75-23.95 147.83-25 149.33-25L149.33-25 156.13-25Q157.68-25 158.73-23.95 159.78-22.9 159.78-21.4L159.78-21.4 159.78-13.8Q159.78-12.3 158.73-11.23 157.68-10.15 156.13-10.15L156.13-10.15 150.38-10.15 150.38-6.5Q150.38-5.75 150.9-5.23 151.43-4.7 152.23-4.7L152.23-4.7 158.73-4.7 159.78 0ZM150.38-18.5L150.38-14.85 153.28-14.85Q154.03-14.85 154.55-15.38 155.08-15.9 155.08-16.65L155.08-16.65 155.08-18.5Q155.08-19.25 154.55-19.78 154.03-20.3 153.28-20.3L153.28-20.3 152.23-20.3Q151.43-20.3 150.9-19.78 150.38-19.25 150.38-18.5L150.38-18.5ZM173.22 0L166.42 0Q164.87 0 163.82-1.07 162.77-2.15 162.77-3.65L162.77-3.65 162.77-21.35Q162.77-22.85 163.82-23.93 164.87-25 166.42-25L166.42-25 173.22-25Q174.72-25 175.8-23.93 176.87-22.85 176.87-21.35L176.87-21.35 176.87-15.9 172.17-15.9 172.17-18.5Q172.17-19.25 171.62-19.78 171.07-20.3 170.32-20.3L170.32-20.3 169.27-20.3Q168.52-20.3 168-19.78 167.47-19.25 167.47-18.5L167.47-18.5 167.47-6.5Q167.47-5.75 168-5.23 168.52-4.7 169.27-4.7L169.27-4.7 170.32-4.7Q171.07-4.7 171.62-5.23 172.17-5.75 172.17-6.5L172.17-6.5 172.17-9.1 176.87-9.1 176.87-3.65Q176.87-2.15 175.8-1.07 174.72 0 173.22 0L173.22 0ZM184.57 0L179.87 0 179.87-36.45 184.57-37.5 184.57-25 190.32-25Q191.82-25 192.87-23.93 193.92-22.85 193.92-21.35L193.92-21.35 193.92 0 189.22 0 189.22-18.5Q189.22-19.25 188.69-19.78 188.17-20.3 187.42-20.3L187.42-20.3 184.57-20.3 184.57 0ZM201.82 0L197.12 0 197.12-25 207.57-25Q209.02-25 210.12-23.95 211.22-22.9 211.22-21.4L211.22-21.4 211.22 0 206.52 0 206.52-18.5Q206.52-19.3 205.97-19.8 205.42-20.3 204.72-20.3L204.72-20.3 201.82-20.3 201.82 0ZM224.27 0L217.47 0Q215.92 0 214.87-1.07 213.82-2.15 213.82-3.65L213.82-3.65 213.82-21.35Q213.82-22.85 214.87-23.93 215.92-25 217.47-25L217.47-25 224.27-25Q225.77-25 226.82-23.93 227.87-22.85 227.87-21.35L227.87-21.35 227.87-3.65Q227.87-2.15 226.82-1.07 225.77 0 224.27 0L224.27 0ZM220.32-4.7L220.32-4.7 221.37-4.7Q222.12-4.7 222.67-5.23 223.22-5.75 223.22-6.5L223.22-6.5 223.22-18.5Q223.22-19.25 222.67-19.78 222.12-20.3 221.37-20.3L221.37-20.3 220.32-20.3Q219.57-20.3 219.04-19.78 218.52-19.25 218.52-18.5L218.52-18.5 218.52-6.5Q218.52-5.75 219.04-5.23 219.57-4.7 220.32-4.7ZM236.11 0L231.41 0 231.41-36.35 236.11-37.4 236.11 0ZM250.46 0L243.66 0Q242.11 0 241.06-1.07 240.01-2.15 240.01-3.65L240.01-3.65 240.01-21.35Q240.01-22.85 241.06-23.93 242.11-25 243.66-25L243.66-25 250.46-25Q251.96-25 253.01-23.93 254.06-22.85 254.06-21.35L254.06-21.35 254.06-3.65Q254.06-2.15 253.01-1.07 251.96 0 250.46 0L250.46 0ZM246.51-4.7L246.51-4.7 247.56-4.7Q248.31-4.7 248.86-5.23 249.41-5.75 249.41-6.5L249.41-6.5 249.41-18.5Q249.41-19.25 248.86-19.78 248.31-20.3 247.56-20.3L247.56-20.3 246.51-20.3Q245.76-20.3 245.24-19.78 244.71-19.25 244.71-18.5L244.71-18.5 244.71-6.5Q244.71-5.75 245.24-5.23 245.76-4.7 246.51-4.7ZM267.56 12.5L260.76 12.5Q259.31 12.5 258.21 11.45 257.11 10.4 257.11 8.85L257.11 8.85 257.11 3.4 261.81 4.5 261.81 6Q261.81 6.7 262.36 7.25 262.91 7.8 263.61 7.8L263.61 7.8 264.71 7.8Q265.51 7.8 266.01 7.25 266.51 6.7 266.51 6L266.51 6 266.51 0 260.76 0Q259.31 0 258.21-1.05 257.11-2.1 257.11-3.65L257.11-3.65 257.11-21.35Q257.11-22.9 258.21-23.95 259.31-25 260.76-25L260.76-25 271.21-25 271.21 8.85Q271.21 10.4 270.16 11.45 269.11 12.5 267.56 12.5L267.56 12.5ZM263.61-4.7L263.61-4.7 264.71-4.7Q265.51-4.7 266.01-5.25 266.51-5.8 266.51-6.5L266.51-6.5 266.51-20.3 263.61-20.3Q262.91-20.3 262.36-19.8 261.81-19.3 261.81-18.5L261.81-18.5 261.81-6.5Q261.81-5.8 262.36-5.25 262.91-4.7 263.61-4.7ZM279.41-32.8L274.71-31.7 274.71-36.4 279.41-37.5 279.41-32.8ZM279.51 0L274.81 0 274.81-23.9 279.51-25 279.51 0ZM293.45 0L286.65 0Q285.1 0 284.05-1.07 283-2.15 283-3.65L283-3.65 283-21.35Q283-22.85 284.05-23.93 285.1-25 286.65-25L286.65-25 293.45-25Q294.95-25 296.03-23.93 297.1-22.85 297.1-21.35L297.1-21.35 297.1-15.9 292.4-15.9 292.4-18.5Q292.4-19.25 291.85-19.78 291.3-20.3 290.55-20.3L290.55-20.3 289.5-20.3Q288.75-20.3 288.23-19.78 287.7-19.25 287.7-18.5L287.7-18.5 287.7-6.5Q287.7-5.75 288.23-5.23 288.75-4.7 289.5-4.7L289.5-4.7 290.55-4.7Q291.3-4.7 291.85-5.23 292.4-5.75 292.4-6.5L292.4-6.5 292.4-9.1 297.1-9.1 297.1-3.65Q297.1-2.15 296.03-1.07 294.95 0 293.45 0L293.45 0ZM313.7 0L303.25 0Q301.75 0 300.68-1.05 299.6-2.1 299.6-3.65L299.6-3.65 299.6-11.2Q299.6-12.7 300.68-13.78 301.75-14.85 303.25-14.85L303.25-14.85 307.15-14.85Q307.95-14.85 308.48-15.38 309-15.9 309-16.65L309-16.65 309-18.5Q309-19.25 308.48-19.78 307.95-20.3 307.15-20.3L307.15-20.3 301.75-20.3 302.8-25 310.05-25Q311.55-25 312.63-23.93 313.7-22.85 313.7-21.35L313.7-21.35 313.7 0ZM306.1-4.7L306.1-4.7 309-4.7 309-10.15 306.1-10.15Q305.35-10.15 304.83-9.63 304.3-9.1 304.3-8.35L304.3-8.35 304.3-6.5Q304.3-5.75 304.83-5.23 305.35-4.7 306.1-4.7Z" opacity="1" transform="matrix(1,0,0,1,0,0)" fill="white" class="wordmark-text-0" id="SvgjsPath1006"></path></svg></g></svg></g><g transform="matrix(1,0,0,1,2.5,78.05922073182322)"><svg viewBox="0 0 390.52 38.71873277364169" height="38.71873277364169" width="390.52"><g transform="matrix(1,0,0,1,0,0)"><svg width="390.52" viewBox="0.08000000000000007 -42.84 577.4799999999999 57.95" height="38.71873277364169" data-palette-color="url(#69b35a50-8c0e-4273-863a-2a5dbac4ad05)"></svg></g></svg></g></svg></g></svg></g></svg></g></svg></g></svg></g></svg></g><defs><mask></mask></defs></svg></g></mask><linearGradient x1="0" x2="1" y1="0.548" y2="0.55" id="1a3db440-364d-4677-9faa-dcd237a6185d"><stop stop-color="#ff6cab" offset="0"></stop><stop stop-color="#7366ff" offset="1"></stop></linearGradient><rect width="395.52" height="247.20000000000005" fill="url(#1a3db440-364d-4677-9faa-dcd237a6185d)" mask="url(#e59eb423-3a43-412e-86e9-33a272e1a21a)" data-fill-palette-color="primary"></rect><mask id="2120427e-da71-4b3d-a6c7-fe7f5b2df862"><g id="SvgjsG1033"><svg viewBox="0 0 395.52 247.2" height="247.2" width="395.52"><g><svg></svg></g><g><svg viewBox="0 0 395.52 247.2" height="247.2" width="395.52"><mask id="SvgjsMask1032"><g transform="matrix(1,0,0,1,0,65.21102324726755)" id="SvgjsG1031"><svg viewBox="0 0 395.52 116.77795350546491" height="116.77795350546491" width="395.52"><g><svg viewBox="0 0 395.52 116.77795350546491" height="116.77795350546491" width="395.52"><g><svg viewBox="0 0 395.52 116.77795350546491" height="116.77795350546491" width="395.52"><g><svg viewBox="0 0 395.52 116.77795350546491" height="116.77795350546491" width="395.52"><g id="SvgjsG1030"><svg viewBox="0 0 395.52 116.77795350546491" height="116.77795350546491" width="395.52" id="SvgjsSvg1029"><g><svg viewBox="0 0 395.52 68.91683827023601" height="68.91683827023601" width="395.52"><g transform="matrix(1,0,0,1,0,0)"><svg width="395.52" viewBox="0.09999999999999964 -40.5 316.59999999999997 56" height="68.91683827023601" data-palette-color="url(#1a3db440-364d-4677-9faa-dcd237a6185d)"></svg></g></svg></g><g transform="matrix(1,0,0,1,2.5,78.05922073182322)"><svg viewBox="0 0 390.52 38.71873277364169" height="38.71873277364169" width="390.52"><g transform="matrix(1,0,0,1,0,0)"><svg width="390.52" viewBox="0.08000000000000007 -42.84 577.4799999999999 57.95" height="38.71873277364169" data-palette-color="url(#69b35a50-8c0e-4273-863a-2a5dbac4ad05)"></svg></g></svg></g></svg></g></svg></g></svg></g></svg></g></svg></g></mask><g mask="url(#900297f1-3ac3-4255-9592-370da67c16e7)"><g></g></g><g transform="matrix(1,0,0,1,0,65.21102324726755)"><svg viewBox="0 0 395.52 116.77795350546491" height="116.77795350546491" width="395.52"><g><svg viewBox="0 0 395.52 116.77795350546491" height="116.77795350546491" width="395.52"><g><svg viewBox="0 0 395.52 116.77795350546491" height="116.77795350546491" width="395.52"><g><svg viewBox="0 0 395.52 116.77795350546491" height="116.77795350546491" width="395.52"><g id="SvgjsG1026"><svg viewBox="0 0 395.52 116.77795350546491" height="116.77795350546491" width="395.52" id="SvgjsSvg1025"><g><svg viewBox="0 0 395.52 68.91683827023601" height="68.91683827023601" width="395.52"><g transform="matrix(1,0,0,1,0,0)"><svg width="395.52" viewBox="0.09999999999999964 -40.5 316.59999999999997 56" height="68.91683827023601" data-palette-color="url(#1a3db440-364d-4677-9faa-dcd237a6185d)"></svg></g></svg></g><g transform="matrix(1,0,0,1,2.5,78.05922073182322)"><svg viewBox="0 0 390.52 38.71873277364169" height="38.71873277364169" width="390.52"><g transform="matrix(1,0,0,1,0,0)"><svg width="390.52" viewBox="0.08000000000000007 -42.84 577.4799999999999 57.95" height="38.71873277364169" data-palette-color="url(#69b35a50-8c0e-4273-863a-2a5dbac4ad05)"><path d="M3.08-16.5L3.08-16.5Q3.08-19.19 3.72-21.67 4.37-24.15 5.57-26.29 6.76-28.44 8.46-30.2 10.16-31.96 12.26-33.22 14.36-34.47 16.81-35.16 19.26-35.84 21.97-35.84L21.97-35.84Q24.12-35.84 25.74-35.56 27.37-35.28 28.58-34.85 29.79-34.42 30.6-33.91 31.42-33.4 31.96-32.93L31.96-32.93Q31.93-32.93 31.93-32.76L31.93-32.76Q31.93-32.4 31.99-31.42 32.06-30.44 32.14-29.25 32.23-28.05 32.29-26.82 32.35-25.59 32.35-24.68L32.35-24.68Q32.35-24.54 32.25-24.35 32.15-24.17 31.76-24.17L31.76-24.17Q31.54-24.17 31.23-24.24L31.23-24.24Q30.71-24.39 29.93-24.91 29.15-25.44 28.11-26.01 27.08-26.59 25.79-27.04 24.51-27.49 23-27.49L23-27.49Q21-27.49 19.36-26.7 17.72-25.9 16.58-24.51 15.43-23.12 14.79-21.2 14.16-19.29 14.16-17.02L14.16-17.02Q14.16-15.01 14.6-13.2 15.04-11.38 15.93-10.01 16.82-8.64 18.15-7.82 19.48-7.01 21.24-7.01L21.24-7.01Q22.63-7.01 23.71-7.1 24.78-7.2 25.71-7.42 26.64-7.64 27.53-8.01 28.42-8.37 29.44-8.94L29.44-8.94Q29.49-8.96 29.69-8.96L29.69-8.96Q29.86-8.96 29.92-8.83 29.98-8.69 29.98-8.28L29.98-8.28 29.98-5.35Q29.98-4.54 29.97-3.77 29.96-3 29.94-2.39 29.93-1.78 29.92-1.4 29.91-1.03 29.88-1.03L29.88-1.03Q28.76-0.32 27.48 0.13 26.2 0.59 24.84 0.84 23.49 1.1 22.12 1.18 20.75 1.27 19.48 1.27L19.48 1.27Q16.04 1.27 13.04-0.04 10.03-1.34 7.82-3.69 5.62-6.03 4.35-9.3 3.08-12.57 3.08-16.5ZM55.65-10.35L55.65-10.35Q55.97-13.7 56.28-16.97 56.6-20.24 56.85-23.68L56.85-23.68Q56.89-24.49 57-24.79 57.11-25.1 57.55-25.2L57.55-25.2Q59.63-25.61 61.9-26.06 64.17-26.51 66.29-27.22L66.29-27.22Q66.37-27.25 66.51-27.25L66.51-27.25Q66.78-27.25 66.78-27.05L66.78-27.05 64.59-3.27Q64.51-2.47 64.41-2.16 64.32-1.86 63.88-1.76L63.88-1.76Q61.8-1.12 59.68-0.34 57.55 0.44 55.19 1.25L55.19 1.25Q55.11 1.27 54.97 1.27L54.97 1.27Q54.7 1.27 54.7 1.03L54.7 1.03Q54.7 1 54.75 0.37 54.8-0.27 54.88-1.27 54.97-2.27 55.06-3.52 55.16-4.76 55.27-6.01 55.38-7.25 55.48-8.4 55.58-9.55 55.65-10.35ZM57.48-29.83L57.48-29.83Q57.55-30.88 57.59-31.45 57.63-32.01 57.65-32.29 57.68-32.57 57.68-32.64 57.68-32.71 57.69-32.75 57.7-32.79 57.71-32.9 57.72-33.01 57.75-33.36 57.77-33.72 57.82-34.4 57.87-35.08 57.97-36.28L57.97-36.28Q58.02-37.08 58.13-37.39 58.24-37.7 58.68-37.79L58.68-37.79Q60.75-38.21 63.02-38.66 65.29-39.11 67.42-39.82L67.42-39.82Q67.49-39.84 67.64-39.84L67.64-39.84Q67.71-39.7 67.83-39.65L67.83-39.65 67.91-39.6 67.37-32.91Q67.3-32.1 67.19-31.79 67.08-31.47 66.66-31.4L66.66-31.4Q64.59-31.01 62.46-30.54 60.34-30.08 57.97-29.61L57.97-29.61Q57.9-29.59 57.75-29.59L57.75-29.59Q57.48-29.59 57.48-29.83ZM117.89-27.66L115.38-4.91Q115.35-4.81 115.35-4.72 115.35-4.64 115.35-4.57L115.35-4.57Q115.35-3.96 115.55-3.55 115.74-3.15 115.97-2.89 116.21-2.64 116.4-2.48 116.6-2.32 116.6-2.2L116.6-2.2Q116.6-1.86 115.86-1.56L115.86-1.56 109.3 1.25Q109.27 1.27 109.13 1.27L109.13 1.27Q108.93 1.27 108.74 0.93 108.54 0.59 108.36 0.06 108.17-0.46 108.02-1.06 107.86-1.66 107.73-2.17L107.73-2.17Q106.2-0.39 104.41 0.44 102.63 1.27 100.87 1.27L100.87 1.27Q98.82 1.27 96.87 0.37 94.92-0.54 93.4-2.21 91.89-3.88 90.97-6.25 90.06-8.62 90.06-11.57L90.06-11.57Q90.06-15.06 91.07-17.94 92.09-20.83 93.82-22.9 95.55-24.98 97.86-26.11 100.17-27.25 102.75-27.25L102.75-27.25Q104.59-27.25 106.22-26.5 107.86-25.76 109.32-24.58L109.32-24.58Q109.47-25.32 109.49-25.76 109.52-26.2 109.6-26.44 109.69-26.68 109.93-26.77 110.18-26.86 110.74-26.9L110.74-26.9Q112.5-27.15 114.24-27.36 115.99-27.56 117.89-27.66L117.89-27.66ZM107.05-6.88L108.08-14.11Q108.32-15.5 108.41-16.74 108.49-17.97 108.54-18.99L108.54-18.99Q108.15-19.29 107.7-19.6 107.25-19.92 106.72-20.2 106.2-20.48 105.62-20.65 105.05-20.83 104.41-20.83L104.41-20.83Q103.1-20.83 102.21-19.97 101.31-19.12 100.76-17.87 100.22-16.63 99.98-15.23 99.75-13.84 99.75-12.77L99.75-12.77Q99.75-8.91 100.76-7.12 101.78-5.32 103.58-5.32L103.58-5.32Q104.32-5.32 105.22-5.74 106.12-6.15 107.05-6.88L107.05-6.88ZM154.84 1.27L154.84 1.27Q151.4 1.27 148.8 0.15 146.2-0.98 144.44-2.84 142.68-4.71 141.8-7.14 140.92-9.57 140.92-12.18L140.92-12.18Q140.92-14.79 141.78-17.15 142.63-19.51 144.17-21.37 145.71-23.24 147.86-24.5 150.01-25.76 152.59-26.2L152.59-26.2Q152.98-26.22 152.98-26.37L152.98-26.37Q152.98-26.64 152.92-26.87 152.86-27.1 152.86-27.27L152.86-27.27Q152.86-27.54 152.96-27.64 153.06-27.73 153.18-27.73L153.18-27.73Q157.84-27.73 161.11-26.67 164.39-25.61 166.44-23.78 168.49-21.95 169.41-19.46 170.34-16.97 170.34-14.11L170.34-14.11Q170.34-10.47 169.12-7.62 167.9-4.76 165.79-2.78 163.68-0.81 160.86 0.23 158.04 1.27 154.84 1.27ZM150.32-12.45L150.32-12.45Q150.32-11.13 150.6-9.84 150.88-8.54 151.53-7.5 152.18-6.45 153.23-5.8 154.28-5.15 155.84-5.15L155.84-5.15Q156.96-5.2 157.81-5.65 158.65-6.1 159.26-6.82 159.87-7.54 160.27-8.45 160.67-9.35 160.91-10.31 161.14-11.28 161.24-12.21 161.33-13.13 161.33-13.89L161.33-13.89Q161.33-15.16 160.96-16.38 160.58-17.6 159.84-18.53 159.11-19.46 158.03-20.03 156.94-20.61 155.52-20.61L155.52-20.61Q154.06-20.61 153.06-19.74 152.06-18.87 151.46-17.6 150.86-16.33 150.59-14.93 150.32-13.53 150.32-12.45ZM204.07-28.56L204.07-28.56Q203.29-24.76 202.54-20.96 201.8-17.16 201.16-13.28L201.16-13.28Q201.11-12.48 201-12.16 200.89-11.84 200.46-11.77L200.46-11.77Q199.5-11.6 198.58-11.4 197.65-11.21 196.62-10.94L196.62-10.94Q196.43-10.94 196.39-11 196.35-11.06 196.35-11.18L196.35-11.18 196.11-35.3Q196.16-36.08 196.28-36.4 196.4-36.72 196.82-36.82L196.82-36.82Q198.89-37.28 201.02-37.88 203.14-38.48 205.51-39.09L205.51-39.09Q205.58-39.11 205.73-39.11L205.73-39.11Q206-39.11 206-38.87L206-38.87Q206-38.84 205.9-38.27 205.8-37.7 205.64-36.79 205.48-35.89 205.29-34.75 205.09-33.62 204.87-32.48 204.65-31.35 204.45-30.31 204.24-29.27 204.07-28.56ZM203.21-8.35L203.21-8.35Q203.14-7.3 203.1-6.74 203.07-6.18 203.04-5.9 203.02-5.62 203.02-5.54 203.02-5.47 203.01-5.43 202.99-5.4 202.98-5.29 202.97-5.18 202.95-4.82 202.92-4.47 202.87-3.78 202.82-3.1 202.73-1.9L202.73-1.9Q202.68-1.1 202.57-0.79 202.46-0.49 202.02-0.39L202.02-0.39Q199.94 0.02 197.67 0.48 195.4 0.93 193.28 1.64L193.28 1.64Q193.2 1.66 193.06 1.66L193.06 1.66 192.84 1.46Q192.79 1.42 192.79 1.42L192.79 1.42 193.33-5.27Q193.38-6.05 193.48-6.37 193.59-6.69 194.03-6.79L194.03-6.79Q196.11-7.15 198.23-7.62 200.36-8.08 202.73-8.57L202.73-8.57Q202.8-8.59 202.95-8.59L202.95-8.59Q203.21-8.59 203.21-8.35ZM270.1-17.41L270.03-17.04Q269.88-14.7 269.77-13.23 269.66-11.77 269.59-10.85 269.52-9.94 269.47-9.41 269.42-8.89 269.4-8.42L269.4-8.42Q269.96-6.96 271.06-6.04 272.15-5.13 273.69-5.13L273.69-5.13Q275.04-5.13 276.05-5.97 277.06-6.81 277.73-8.15 278.4-9.5 278.75-11.16 279.09-12.82 279.09-14.45L279.09-14.45Q279.09-15.8 278.86-16.94 278.62-18.09 278.16-18.93 277.7-19.78 277-20.25 276.31-20.73 275.35-20.73L275.35-20.73Q274.57-20.73 273.8-20.42 273.03-20.12 272.33-19.64 271.62-19.17 271.04-18.57 270.47-17.97 270.1-17.41L270.1-17.41ZM270.52-24.19L270.52-24.19Q272.57-25.59 274.82-26.42 277.06-27.25 279.5-27.25L279.5-27.25Q281.8-27.25 283.47-26.31 285.14-25.37 286.24-23.77 287.34-22.17 287.87-20.09 288.39-18.02 288.39-15.75L288.39-15.75Q288.39-13.77 288-11.74 287.61-9.72 286.85-7.82 286.1-5.93 284.97-4.27 283.85-2.61 282.4-1.38 280.94-0.15 279.16 0.56 277.38 1.27 275.3 1.27L275.3 1.27Q273.47 1.27 271.8 0.54 270.13-0.2 268.66-1.37L268.66-1.37Q268.66-1.25 268.6-0.48 268.54 0.29 268.44 1.39 268.35 2.49 268.22 3.75 268.1 5 268 6.1 267.91 7.2 267.85 7.97 267.78 8.74 267.78 8.86L267.78 8.86Q267.78 9.06 267.8 9.19 267.81 9.33 267.81 9.45L267.81 9.45Q267.81 9.64 267.63 9.78 267.44 9.91 266.81 10.08L266.81 10.08 260.39 11.72Q260.12 11.79 259.68 11.95 259.24 12.11 258.82 12.11L258.82 12.11Q258.48 12.11 258.23 11.94 257.97 11.77 257.97 11.3L257.97 11.3 260.95-24.44Q261.02-25.24 261.13-25.55 261.24-25.85 261.68-25.95L261.68-25.95Q263.9-26.39 266.25-26.84 268.59-27.29 270.81-28L270.81-28Q271.01-28 271.04-27.94 271.08-27.88 271.08-27.76L271.08-27.76Q271.08-27.71 271.07-27.61 271.06-27.51 271-27.17 270.93-26.83 270.82-26.14 270.71-25.44 270.52-24.19ZM326.51-27.25L326.51-27.25Q328.83-27.25 330.72-26.38 332.61-25.51 333.97-24.13 335.32-22.75 336.06-21.04 336.79-19.34 336.79-17.63L336.79-17.63Q336.79-16.11 335.86-14.59 334.93-13.06 333.26-11.84 331.59-10.62 329.25-9.86 326.9-9.11 324.09-9.11L324.09-9.11Q322.63-9.11 321.02-9.4L321.02-9.4Q321.12-8.35 321.63-7.59 322.14-6.84 322.92-6.35 323.7-5.86 324.69-5.63 325.68-5.4 326.73-5.4L326.73-5.4Q327.9-5.4 328.99-5.6 330.08-5.81 331.08-6.15 332.08-6.49 333-6.91 333.93-7.32 334.76-7.74L334.76-7.74Q334.98-7.79 335.14-7.82 335.3-7.86 335.45-7.86L335.45-7.86Q335.45-7.86 335.43-7.47 335.42-7.08 335.42-6.37 335.42-5.66 335.41-4.66 335.4-3.66 335.37-2.44L335.37-2.44Q335.45-2.32 335.47-2.2 335.5-2.08 335.5-2L335.5-2Q335.5-1.71 334.96-1.37 334.42-1.03 333.55-0.66 332.69-0.29 331.58 0.05 330.47 0.39 329.32 0.67 328.17 0.95 327.1 1.11 326.02 1.27 325.22 1.27L325.22 1.27Q322.58 1.27 320.1 0.35 317.62-0.56 315.71-2.27 313.79-3.98 312.64-6.42 311.5-8.86 311.5-11.91L311.5-11.91Q311.5-15.11 312.59-17.91 313.69-20.7 315.68-22.78 317.67-24.85 320.43-26.05 323.19-27.25 326.51-27.25ZM326.22-20.75L326.22-20.75Q325.22-20.75 324.37-20.32 323.53-19.9 322.84-19.1 322.14-18.31 321.63-17.2 321.12-16.09 320.8-14.75L320.8-14.75Q323.31-15.19 324.97-15.67 326.63-16.16 327.63-16.66 328.63-17.16 329.05-17.66 329.46-18.16 329.46-18.63L329.46-18.63Q329.46-19.07 329.14-19.46 328.81-19.85 328.32-20.14 327.83-20.43 327.26-20.59 326.68-20.75 326.22-20.75ZM381.82-27.44L380.3-19.87Q379.79-19.92 379.16-19.98 378.52-20.04 377.81-20.04L377.81-20.04Q376.74-20.04 375.63-19.86 374.52-19.68 373.57-19.14 372.61-18.6 371.93-17.66 371.25-16.72 371.05-15.23L371.05-15.23Q370.88-13.43 370.77-12.27 370.66-11.11 370.61-10.36 370.56-9.62 370.53-9.17 370.49-8.72 370.47-8.33L370.47-8.33Q370.47-8.23 370.43-7.79 370.39-7.35 370.32-6.76 370.25-6.18 370.19-5.49 370.12-4.81 370.05-4.22 369.98-3.64 369.94-3.2 369.9-2.76 369.9-2.66L369.9-2.66Q369.9-2.47 369.92-2.33 369.93-2.2 369.93-2.08L369.93-2.08Q369.93-1.88 369.75-1.75 369.56-1.61 368.93-1.44L368.93-1.44 362.46 0.88Q362.19 0.98 361.75 1.12 361.31 1.27 360.9 1.27L360.9 1.27Q360.55 1.27 360.3 1.1 360.04 0.93 360.04 0.51L360.04 0.51 362.14-23.68Q362.21-24.49 362.32-24.79 362.43-25.1 362.87-25.2L362.87-25.2Q365.09-25.63 367.46-26.09 369.83-26.54 372.05-27.25L372.05-27.25Q372.25-27.25 372.28-27.19 372.32-27.12 372.32-27L372.32-27Q372.32-26.95 372.31-26.86 372.3-26.76 372.24-26.42 372.18-26.07 372.07-25.38 371.96-24.68 371.76-23.44L371.76-23.44Q372.88-24.32 374.24-25.05 375.59-25.78 376.96-26.31 378.33-26.83 379.6-27.14 380.87-27.44 381.82-27.44L381.82-27.44ZM403.34-0.07L403.02-6.74Q403.02-6.76 403.01-6.77 403-6.79 403-6.81L403-6.81Q403-7.13 403.34-7.13L403.34-7.13Q403.56-7.13 403.73-6.96L403.73-6.96Q404.7-6.03 405.96-5.44 407.22-4.86 408.68-4.86L408.68-4.86Q409.07-4.86 409.59-4.94 410.1-5.03 410.56-5.22 411.03-5.42 411.33-5.75 411.64-6.08 411.64-6.57L411.64-6.57Q411.64-7.1 411.37-7.56 411.1-8.01 410.66-8.3L410.66-8.3Q410.42-8.47 409.81-8.9 409.2-9.33 408.5-9.81 407.81-10.3 407.18-10.74 406.56-11.18 406.32-11.38L406.32-11.38Q405.22-12.21 404.57-13.06 403.92-13.92 403.58-14.83 403.24-15.75 403.14-16.75 403.04-17.75 403.04-18.87L403.04-18.87Q403.04-20.58 403.95-22.09 404.85-23.61 406.33-24.76 407.81-25.9 409.69-26.57 411.56-27.25 413.52-27.25L413.52-27.25Q415.13-27.25 416.69-26.76 418.25-26.27 419.6-25.1L419.6-25.1Q419.72-23.56 419.77-22.07 419.82-20.58 419.91-18.95L419.91-18.95Q419.91-18.63 419.77-18.52 419.62-18.41 419.43-18.41L419.43-18.41Q419.26-18.41 419.13-18.53L419.13-18.53Q418.57-19.07 417.99-19.59 417.4-20.12 416.75-20.52 416.11-20.92 415.37-21.18 414.64-21.44 413.81-21.44L413.81-21.44Q413.3-21.44 412.79-21.35 412.27-21.26 411.86-21.03 411.44-20.8 411.19-20.41 410.93-20.02 410.93-19.41L410.93-19.41Q410.93-18.7 411.1-18.19 411.27-17.68 411.91-17.19L411.91-17.19 416.45-14.11Q417.69-13.26 418.46-12.44 419.23-11.62 419.67-10.82 420.11-10.01 420.27-9.22 420.43-8.42 420.43-7.64L420.43-7.64Q420.43-5.44 419.41-3.77 418.4-2.1 416.79-0.99 415.18 0.12 413.14 0.7 411.1 1.27 409.05 1.27L409.05 1.27Q407.49 1.27 406.04 0.94 404.58 0.61 403.34-0.07L403.34-0.07ZM457.84 1.27L457.84 1.27Q454.4 1.27 451.8 0.15 449.2-0.98 447.44-2.84 445.68-4.71 444.8-7.14 443.92-9.57 443.92-12.18L443.92-12.18Q443.92-14.79 444.78-17.15 445.63-19.51 447.17-21.37 448.71-23.24 450.86-24.5 453.01-25.76 455.59-26.2L455.59-26.2Q455.98-26.22 455.98-26.37L455.98-26.37Q455.98-26.64 455.92-26.87 455.86-27.1 455.86-27.27L455.86-27.27Q455.86-27.54 455.96-27.64 456.06-27.73 456.18-27.73L456.18-27.73Q460.84-27.73 464.11-26.67 467.39-25.61 469.44-23.78 471.49-21.95 472.41-19.46 473.34-16.97 473.34-14.11L473.34-14.11Q473.34-10.47 472.12-7.62 470.9-4.76 468.79-2.78 466.68-0.81 463.86 0.23 461.04 1.27 457.84 1.27ZM453.32-12.45L453.32-12.45Q453.32-11.13 453.6-9.84 453.88-8.54 454.53-7.5 455.18-6.45 456.23-5.8 457.28-5.15 458.84-5.15L458.84-5.15Q459.96-5.2 460.81-5.65 461.65-6.1 462.26-6.82 462.87-7.54 463.27-8.45 463.67-9.35 463.91-10.31 464.14-11.28 464.24-12.21 464.33-13.13 464.33-13.89L464.33-13.89Q464.33-15.16 463.96-16.38 463.58-17.6 462.84-18.53 462.11-19.46 461.03-20.03 459.94-20.61 458.52-20.61L458.52-20.61Q457.06-20.61 456.06-19.74 455.06-18.87 454.46-17.6 453.86-16.33 453.59-14.93 453.32-13.53 453.32-12.45ZM523.16-0.78L517.22 0.88Q516.96 0.95 516.52 1.11 516.08 1.27 515.66 1.27L515.66 1.27Q515.32 1.27 515.06 1.1 514.81 0.93 514.81 0.51L514.81 0.51 514.81 0.37Q514.95-0.95 515.05-1.87 515.15-2.78 515.23-3.53 515.32-4.27 515.38-5.02 515.44-5.76 515.54-6.75 515.64-7.74 515.77-9.09 515.91-10.45 516.1-12.48L516.1-12.48Q516.22-13.72 516.32-15.01 516.42-16.31 516.42-17.41L516.42-17.41Q516.42-18.14 516.31-18.76 516.2-19.38 515.92-19.84 515.64-20.29 515.15-20.53 514.66-20.78 513.9-20.78L513.9-20.78Q513.34-20.78 512.35-20.53 511.37-20.29 510.39-19.73 509.41-19.17 508.66-18.25 507.9-17.33 507.8-15.99L507.8-15.99Q507.65-14.18 507.53-12.9 507.41-11.62 507.31-10.73 507.21-9.84 507.15-9.28 507.09-8.72 507.07-8.33L507.07-8.33Q507.04-8.23 507-7.79 506.95-7.35 506.89-6.74 506.82-6.13 506.76-5.44 506.7-4.76 506.64-4.15 506.58-3.54 506.54-3.1 506.51-2.66 506.51-2.56L506.51-2.56Q506.51-2.37 506.52-2.23 506.53-2.1 506.53-1.98L506.53-1.98Q506.53-1.78 506.35-1.65 506.17-1.51 505.53-1.34L505.53-1.34 499.06 0.88Q498.79 0.98 498.35 1.12 497.91 1.27 497.5 1.27L497.5 1.27Q497.16 1.27 496.9 1.1 496.64 0.93 496.64 0.51L496.64 0.51 498.87-24.44Q498.94-25.24 499.05-25.55 499.16-25.85 499.6-25.95L499.6-25.95Q501.82-26.39 504.16-26.84 506.51-27.29 508.73-28L508.73-28Q508.92-28 508.96-27.94 509-27.88 509-27.76L509-27.76Q509-27.71 508.98-27.61 508.97-27.51 508.91-27.17 508.85-26.83 508.74-26.14 508.63-25.44 508.44-24.19L508.44-24.19Q510.12-25.17 511.6-25.77 513.07-26.37 514.38-26.7 515.69-27.03 516.83-27.14 517.98-27.25 518.98-27.25L518.98-27.25Q522.42-27.25 523.99-25.16 525.55-23.07 525.55-18.9L525.55-18.9Q525.55-18.31 525.53-17.69 525.5-17.07 525.43-16.41L525.43-16.41 524.3-5.91Q524.18-4.88 524.16-4.02 524.13-3.15 524.13-2L524.13-2Q524.13-1.81 524.15-1.67 524.16-1.54 524.16-1.44L524.16-1.44Q524.16-1.22 523.98-1.1 523.79-0.98 523.16-0.78L523.16-0.78ZM564.28-27.25L564.28-27.25Q566.6-27.25 568.49-26.38 570.38-25.51 571.74-24.13 573.09-22.75 573.83-21.04 574.56-19.34 574.56-17.63L574.56-17.63Q574.56-16.11 573.63-14.59 572.7-13.06 571.03-11.84 569.36-10.62 567.01-9.86 564.67-9.11 561.86-9.11L561.86-9.11Q560.4-9.11 558.79-9.4L558.79-9.4Q558.89-8.35 559.4-7.59 559.91-6.84 560.69-6.35 561.47-5.86 562.46-5.63 563.45-5.4 564.5-5.4L564.5-5.4Q565.67-5.4 566.76-5.6 567.85-5.81 568.85-6.15 569.85-6.49 570.77-6.91 571.7-7.32 572.53-7.74L572.53-7.74Q572.75-7.79 572.91-7.82 573.07-7.86 573.22-7.86L573.22-7.86Q573.22-7.86 573.2-7.47 573.19-7.08 573.19-6.37 573.19-5.66 573.18-4.66 573.17-3.66 573.14-2.44L573.14-2.44Q573.22-2.32 573.24-2.2 573.26-2.08 573.26-2L573.26-2Q573.26-1.71 572.73-1.37 572.19-1.03 571.32-0.66 570.46-0.29 569.35 0.05 568.24 0.39 567.09 0.67 565.94 0.95 564.87 1.11 563.79 1.27 562.99 1.27L562.99 1.27Q560.35 1.27 557.87 0.35 555.39-0.56 553.48-2.27 551.56-3.98 550.41-6.42 549.27-8.86 549.27-11.91L549.27-11.91Q549.27-15.11 550.36-17.91 551.46-20.7 553.45-22.78 555.44-24.85 558.2-26.05 560.96-27.25 564.28-27.25ZM563.99-20.75L563.99-20.75Q562.99-20.75 562.14-20.32 561.3-19.9 560.61-19.1 559.91-18.31 559.4-17.2 558.89-16.09 558.57-14.75L558.57-14.75Q561.08-15.19 562.74-15.67 564.4-16.16 565.4-16.66 566.4-17.16 566.82-17.66 567.23-18.16 567.23-18.63L567.23-18.63Q567.23-19.07 566.91-19.46 566.58-19.85 566.09-20.14 565.6-20.43 565.03-20.59 564.45-20.75 563.99-20.75Z" opacity="1" transform="matrix(1,0,0,1,0,0)" fill="white" class="slogan-text-1" id="SvgjsPath1024"></path></svg></g></svg></g></svg></g></svg></g></svg></g></svg></g></svg></g></svg></g><defs><mask></mask></defs><mask><g id="SvgjsG1023"><svg viewBox="0 0 395.52 247.2" height="247.2" width="395.52"><g><svg></svg></g><g><svg viewBox="0 0 395.52 247.2" height="247.2" width="395.52"><mask id="SvgjsMask1022"><g transform="matrix(1,0,0,1,0,65.21102324726755)" id="SvgjsG1021"><svg viewBox="0 0 395.52 116.77795350546491" height="116.77795350546491" width="395.52"><g><svg viewBox="0 0 395.52 116.77795350546491" height="116.77795350546491" width="395.52"><g><svg viewBox="0 0 395.52 116.77795350546491" height="116.77795350546491" width="395.52"><g><svg viewBox="0 0 395.52 116.77795350546491" height="116.77795350546491" width="395.52"><g id="SvgjsG1020"><svg viewBox="0 0 395.52 116.77795350546491" height="116.77795350546491" width="395.52" id="SvgjsSvg1019"><g><svg viewBox="0 0 395.52 68.91683827023601" height="68.91683827023601" width="395.52"><g transform="matrix(1,0,0,1,0,0)"><svg width="395.52" viewBox="0.09999999999999964 -40.5 316.59999999999997 56" height="68.91683827023601" data-palette-color="url(#1a3db440-364d-4677-9faa-dcd237a6185d)"></svg></g></svg></g><g transform="matrix(1,0,0,1,2.5,78.05922073182322)"><svg viewBox="0 0 390.52 38.71873277364169" height="38.71873277364169" width="390.52"><g transform="matrix(1,0,0,1,0,0)"><svg width="390.52" viewBox="0.08000000000000007 -42.84 577.4799999999999 57.95" height="38.71873277364169" data-palette-color="url(#69b35a50-8c0e-4273-863a-2a5dbac4ad05)"></svg></g></svg></g></svg></g></svg></g></svg></g></svg></g></svg></g></mask><g mask="url(#900297f1-3ac3-4255-9592-370da67c16e7)"><g></g></g><g transform="matrix(1,0,0,1,0,65.21102324726755)"><svg viewBox="0 0 395.52 116.77795350546491" height="116.77795350546491" width="395.52"><g><svg viewBox="0 0 395.52 116.77795350546491" height="116.77795350546491" width="395.52"><g><svg viewBox="0 0 395.52 116.77795350546491" height="116.77795350546491" width="395.52"><g><svg viewBox="0 0 395.52 116.77795350546491" height="116.77795350546491" width="395.52"><g id="SvgjsG1018"><svg viewBox="0 0 395.52 116.77795350546491" height="116.77795350546491" width="395.52" id="SvgjsSvg1017"><g><svg viewBox="0 0 395.52 68.91683827023601" height="68.91683827023601" width="395.52"><g transform="matrix(1,0,0,1,0,0)"><svg width="395.52" viewBox="0.09999999999999964 -40.5 316.59999999999997 56" height="68.91683827023601" data-palette-color="url(#1a3db440-364d-4677-9faa-dcd237a6185d)"></svg></g></svg></g><g transform="matrix(1,0,0,1,2.5,78.05922073182322)"><svg viewBox="0 0 390.52 38.71873277364169" height="38.71873277364169" width="390.52"><g transform="matrix(1,0,0,1,0,0)"><svg width="390.52" viewBox="0.08000000000000007 -42.84 577.4799999999999 57.95" height="38.71873277364169" data-palette-color="url(#69b35a50-8c0e-4273-863a-2a5dbac4ad05)"></svg></g></svg></g></svg></g></svg></g></svg></g></svg></g></svg></g></svg></g><defs><mask></mask></defs></svg></g></mask></svg></g></mask><linearGradient x1="0" x2="1" y1="0.548" y2="0.55" id="69b35a50-8c0e-4273-863a-2a5dbac4ad05"><stop stop-color="#ff6cab" offset="0"></stop><stop stop-color="#7366ff" offset="1"></stop></linearGradient><rect width="395.52" height="247.20000000000005" fill="url(#69b35a50-8c0e-4273-863a-2a5dbac4ad05)" mask="url(#2120427e-da71-4b3d-a6c7-fe7f5b2df862)" data-fill-palette-color="secondary"></rect><mask id="d241e800-ab96-4c63-a6ad-1e096c11ba7c"><g id="SvgjsG1065"><svg viewBox="0 0 395.52 247.2" height="247.2" width="395.52"><g><svg></svg></g><g><svg viewBox="0 0 395.52 247.2" height="247.2" width="395.52"><mask id="SvgjsMask1064"><g transform="matrix(1,0,0,1,0,65.21102324726755)" id="SvgjsG1063"><svg viewBox="0 0 395.52 116.77795350546491" height="116.77795350546491" width="395.52"><g><svg viewBox="0 0 395.52 116.77795350546491" height="116.77795350546491" width="395.52"><g><svg viewBox="0 0 395.52 116.77795350546491" height="116.77795350546491" width="395.52"><g><svg viewBox="0 0 395.52 116.77795350546491" height="116.77795350546491" width="395.52"><g id="SvgjsG1062"><svg viewBox="0 0 395.52 116.77795350546491" height="116.77795350546491" width="395.52" id="SvgjsSvg1061"><g><svg viewBox="0 0 395.52 68.91683827023601" height="68.91683827023601" width="395.52"><g transform="matrix(1,0,0,1,0,0)"><svg width="395.52" viewBox="0.09999999999999964 -40.5 316.59999999999997 56" height="68.91683827023601" data-palette-color="url(#1a3db440-364d-4677-9faa-dcd237a6185d)"></svg></g></svg></g><g transform="matrix(1,0,0,1,2.5,78.05922073182322)"><svg viewBox="0 0 390.52 38.71873277364169" height="38.71873277364169" width="390.52"><g transform="matrix(1,0,0,1,0,0)"><svg width="390.52" viewBox="0.08000000000000007 -42.84 577.4799999999999 57.95" height="38.71873277364169" data-palette-color="url(#69b35a50-8c0e-4273-863a-2a5dbac4ad05)"></svg></g></svg></g></svg></g></svg></g></svg></g></svg></g></svg></g></mask><g mask="url(#900297f1-3ac3-4255-9592-370da67c16e7)"><g><path d="M106.579 247.2h-80.164c-7.063 0-13.066-2.472-18.01-7.416-4.944-4.944-7.416-10.947-7.416-18.01v0-196.701c0-6.827 2.472-12.713 7.416-17.657 4.944-4.944 10.947-7.416 18.01-7.416v0h80.164c7.063 0 13.066 2.472 18.01 7.416 4.944 4.944 7.416 10.83 7.416 17.657v0 55.09l-32.842-7.416v-27.545c0-3.531-1.224-6.545-3.673-9.04-2.496-2.448-5.509-3.673-9.041-3.673v0h-39.905c-3.531 0-6.521 1.224-8.97 3.673-2.496 2.496-3.743 5.509-3.743 9.04v0 156.443c0 3.531 1.248 6.521 3.743 8.969 2.448 2.496 5.438 3.743 8.97 3.744v0h39.905c3.531 0 6.545-1.248 9.041-3.744 2.448-2.448 3.673-5.438 3.673-8.969v0-34.255h-32.49l7.416-32.843h57.916v87.227c0 7.063-2.472 13.066-7.416 18.01-4.944 4.944-10.947 7.416-18.01 7.416zM345.444 247.2h-32.842v-214.358h-49.087v-32.842h131.016v32.842h-49.087z" fill="white" fill-rule="nonzero" stroke="none" stroke-width="1" stroke-linecap="butt" stroke-linejoin="miter" stroke-miterlimit="10" stroke-dasharray="" stroke-dashoffset="0" font-family="none" font-weight="none" font-size="none" text-anchor="none" style="mix-blend-mode: normal"></path></g></g><g transform="matrix(1,0,0,1,0,65.21102324726755)"><svg viewBox="0 0 395.52 116.77795350546491" height="116.77795350546491" width="395.52"><g><svg viewBox="0 0 395.52 116.77795350546491" height="116.77795350546491" width="395.52"><g><svg viewBox="0 0 395.52 116.77795350546491" height="116.77795350546491" width="395.52"><g><svg viewBox="0 0 395.52 116.77795350546491" height="116.77795350546491" width="395.52"><g id="SvgjsG1058"><svg viewBox="0 0 395.52 116.77795350546491" height="116.77795350546491" width="395.52" id="SvgjsSvg1057"><g><svg viewBox="0 0 395.52 68.91683827023601" height="68.91683827023601" width="395.52"><g transform="matrix(1,0,0,1,0,0)"><svg width="395.52" viewBox="0.09999999999999964 -40.5 316.59999999999997 56" height="68.91683827023601" data-palette-color="url(#1a3db440-364d-4677-9faa-dcd237a6185d)"></svg></g></svg></g><g transform="matrix(1,0,0,1,2.5,78.05922073182322)"><svg viewBox="0 0 390.52 38.71873277364169" height="38.71873277364169" width="390.52"><g transform="matrix(1,0,0,1,0,0)"><svg width="390.52" viewBox="0.08000000000000007 -42.84 577.4799999999999 57.95" height="38.71873277364169" data-palette-color="url(#69b35a50-8c0e-4273-863a-2a5dbac4ad05)"></svg></g></svg></g></svg></g></svg></g></svg></g></svg></g></svg></g></svg></g><defs><mask></mask></defs><mask><g id="SvgjsG1056"><svg viewBox="0 0 395.52 247.2" height="247.2" width="395.52"><g><svg></svg></g><g><svg viewBox="0 0 395.52 247.2" height="247.2" width="395.52"><mask id="SvgjsMask1055"><g transform="matrix(1,0,0,1,0,65.21102324726755)" id="SvgjsG1054"><svg viewBox="0 0 395.52 116.77795350546491" height="116.77795350546491" width="395.52"><g><svg viewBox="0 0 395.52 116.77795350546491" height="116.77795350546491" width="395.52"><g><svg viewBox="0 0 395.52 116.77795350546491" height="116.77795350546491" width="395.52"><g><svg viewBox="0 0 395.52 116.77795350546491" height="116.77795350546491" width="395.52"><g id="SvgjsG1053"><svg viewBox="0 0 395.52 116.77795350546491" height="116.77795350546491" width="395.52" id="SvgjsSvg1052"><g><svg viewBox="0 0 395.52 68.91683827023601" height="68.91683827023601" width="395.52"><g transform="matrix(1,0,0,1,0,0)"><svg width="395.52" viewBox="0.09999999999999964 -40.5 316.59999999999997 56" height="68.91683827023601" data-palette-color="url(#1a3db440-364d-4677-9faa-dcd237a6185d)"></svg></g></svg></g><g transform="matrix(1,0,0,1,2.5,78.05922073182322)"><svg viewBox="0 0 390.52 38.71873277364169" height="38.71873277364169" width="390.52"><g transform="matrix(1,0,0,1,0,0)"><svg width="390.52" viewBox="0.08000000000000007 -42.84 577.4799999999999 57.95" height="38.71873277364169" data-palette-color="url(#69b35a50-8c0e-4273-863a-2a5dbac4ad05)"></svg></g></svg></g></svg></g></svg></g></svg></g></svg></g></svg></g></mask><g mask="url(#900297f1-3ac3-4255-9592-370da67c16e7)"><g></g></g><g transform="matrix(1,0,0,1,0,65.21102324726755)"><svg viewBox="0 0 395.52 116.77795350546491" height="116.77795350546491" width="395.52"><g><svg viewBox="0 0 395.52 116.77795350546491" height="116.77795350546491" width="395.52"><g><svg viewBox="0 0 395.52 116.77795350546491" height="116.77795350546491" width="395.52"><g><svg viewBox="0 0 395.52 116.77795350546491" height="116.77795350546491" width="395.52"><g id="SvgjsG1051"><svg viewBox="0 0 395.52 116.77795350546491" height="116.77795350546491" width="395.52" id="SvgjsSvg1050"><g><svg viewBox="0 0 395.52 68.91683827023601" height="68.91683827023601" width="395.52"><g transform="matrix(1,0,0,1,0,0)"><svg width="395.52" viewBox="0.09999999999999964 -40.5 316.59999999999997 56" height="68.91683827023601" data-palette-color="url(#1a3db440-364d-4677-9faa-dcd237a6185d)"></svg></g></svg></g><g transform="matrix(1,0,0,1,2.5,78.05922073182322)"><svg viewBox="0 0 390.52 38.71873277364169" height="38.71873277364169" width="390.52"><g transform="matrix(1,0,0,1,0,0)"><svg width="390.52" viewBox="0.08000000000000007 -42.84 577.4799999999999 57.95" height="38.71873277364169" data-palette-color="url(#69b35a50-8c0e-4273-863a-2a5dbac4ad05)"></svg></g></svg></g></svg></g></svg></g></svg></g></svg></g></svg></g></svg></g><defs><mask></mask></defs></svg></g></mask><mask><g id="SvgjsG1048"><svg viewBox="0 0 395.52 247.2" height="247.2" width="395.52"><g><svg></svg></g><g><svg viewBox="0 0 395.52 247.2" height="247.2" width="395.52"><mask id="SvgjsMask1047"><g transform="matrix(1,0,0,1,0,65.21102324726755)" id="SvgjsG1046"><svg viewBox="0 0 395.52 116.77795350546491" height="116.77795350546491" width="395.52"><g><svg viewBox="0 0 395.52 116.77795350546491" height="116.77795350546491" width="395.52"><g><svg viewBox="0 0 395.52 116.77795350546491" height="116.77795350546491" width="395.52"><g><svg viewBox="0 0 395.52 116.77795350546491" height="116.77795350546491" width="395.52"><g id="SvgjsG1045"><svg viewBox="0 0 395.52 116.77795350546491" height="116.77795350546491" width="395.52" id="SvgjsSvg1044"><g><svg viewBox="0 0 395.52 68.91683827023601" height="68.91683827023601" width="395.52"><g transform="matrix(1,0,0,1,0,0)"><svg width="395.52" viewBox="0.09999999999999964 -40.5 316.59999999999997 56" height="68.91683827023601" data-palette-color="url(#1a3db440-364d-4677-9faa-dcd237a6185d)"></svg></g></svg></g><g transform="matrix(1,0,0,1,2.5,78.05922073182322)"><svg viewBox="0 0 390.52 38.71873277364169" height="38.71873277364169" width="390.52"><g transform="matrix(1,0,0,1,0,0)"><svg width="390.52" viewBox="0.08000000000000007 -42.84 577.4799999999999 57.95" height="38.71873277364169" data-palette-color="url(#69b35a50-8c0e-4273-863a-2a5dbac4ad05)"></svg></g></svg></g></svg></g></svg></g></svg></g></svg></g></svg></g></mask><g mask="url(#900297f1-3ac3-4255-9592-370da67c16e7)"><g></g></g><g transform="matrix(1,0,0,1,0,65.21102324726755)"><svg viewBox="0 0 395.52 116.77795350546491" height="116.77795350546491" width="395.52"><g><svg viewBox="0 0 395.52 116.77795350546491" height="116.77795350546491" width="395.52"><g><svg viewBox="0 0 395.52 116.77795350546491" height="116.77795350546491" width="395.52"><g><svg viewBox="0 0 395.52 116.77795350546491" height="116.77795350546491" width="395.52"><g id="SvgjsG1043"><svg viewBox="0 0 395.52 116.77795350546491" height="116.77795350546491" width="395.52" id="SvgjsSvg1042"><g><svg viewBox="0 0 395.52 68.91683827023601" height="68.91683827023601" width="395.52"><g transform="matrix(1,0,0,1,0,0)"><svg width="395.52" viewBox="0.09999999999999964 -40.5 316.59999999999997 56" height="68.91683827023601" data-palette-color="url(#1a3db440-364d-4677-9faa-dcd237a6185d)"></svg></g></svg></g><g transform="matrix(1,0,0,1,2.5,78.05922073182322)"><svg viewBox="0 0 390.52 38.71873277364169" height="38.71873277364169" width="390.52"><g transform="matrix(1,0,0,1,0,0)"><svg width="390.52" viewBox="0.08000000000000007 -42.84 577.4799999999999 57.95" height="38.71873277364169" data-palette-color="url(#69b35a50-8c0e-4273-863a-2a5dbac4ad05)"></svg></g></svg></g></svg></g></svg></g></svg></g></svg></g></svg></g></svg></g><defs><mask></mask></defs><mask><g id="SvgjsG1040"><svg viewBox="0 0 395.52 247.2" height="247.2" width="395.52"><g><svg></svg></g><g><svg viewBox="0 0 395.52 247.2" height="247.2" width="395.52"><mask id="SvgjsMask1039"><g transform="matrix(1,0,0,1,0,65.21102324726755)" id="SvgjsG1038"><svg viewBox="0 0 395.52 116.77795350546491" height="116.77795350546491" width="395.52"><g><svg viewBox="0 0 395.52 116.77795350546491" height="116.77795350546491" width="395.52"><g><svg viewBox="0 0 395.52 116.77795350546491" height="116.77795350546491" width="395.52"><g><svg viewBox="0 0 395.52 116.77795350546491" height="116.77795350546491" width="395.52"><g id="SvgjsG1037"><svg viewBox="0 0 395.52 116.77795350546491" height="116.77795350546491" width="395.52" id="SvgjsSvg1036"><g><svg viewBox="0 0 395.52 68.91683827023601" height="68.91683827023601" width="395.52"><g transform="matrix(1,0,0,1,0,0)"><svg width="395.52" viewBox="0.09999999999999964 -40.5 316.59999999999997 56" height="68.91683827023601" data-palette-color="url(#1a3db440-364d-4677-9faa-dcd237a6185d)"></svg></g></svg></g><g transform="matrix(1,0,0,1,2.5,78.05922073182322)"><svg viewBox="0 0 390.52 38.71873277364169" height="38.71873277364169" width="390.52"><g transform="matrix(1,0,0,1,0,0)"><svg width="390.52" viewBox="0.08000000000000007 -42.84 577.4799999999999 57.95" height="38.71873277364169" data-palette-color="url(#69b35a50-8c0e-4273-863a-2a5dbac4ad05)"></svg></g></svg></g></svg></g></svg></g></svg></g></svg></g></svg></g></mask><g mask="url(#900297f1-3ac3-4255-9592-370da67c16e7)"><g></g></g><g transform="matrix(1,0,0,1,0,65.21102324726755)"><svg viewBox="0 0 395.52 116.77795350546491" height="116.77795350546491" width="395.52"><g><svg viewBox="0 0 395.52 116.77795350546491" height="116.77795350546491" width="395.52"><g><svg viewBox="0 0 395.52 116.77795350546491" height="116.77795350546491" width="395.52"><g><svg viewBox="0 0 395.52 116.77795350546491" height="116.77795350546491" width="395.52"><g id="SvgjsG1035"><svg viewBox="0 0 395.52 116.77795350546491" height="116.77795350546491" width="395.52" id="SvgjsSvg1034"><g><svg viewBox="0 0 395.52 68.91683827023601" height="68.91683827023601" width="395.52"><g transform="matrix(1,0,0,1,0,0)"><svg width="395.52" viewBox="0.09999999999999964 -40.5 316.59999999999997 56" height="68.91683827023601" data-palette-color="url(#1a3db440-364d-4677-9faa-dcd237a6185d)"></svg></g></svg></g><g transform="matrix(1,0,0,1,2.5,78.05922073182322)"><svg viewBox="0 0 390.52 38.71873277364169" height="38.71873277364169" width="390.52"><g transform="matrix(1,0,0,1,0,0)"><svg width="390.52" viewBox="0.08000000000000007 -42.84 577.4799999999999 57.95" height="38.71873277364169" data-palette-color="url(#69b35a50-8c0e-4273-863a-2a5dbac4ad05)"></svg></g></svg></g></svg></g></svg></g></svg></g></svg></g></svg></g></svg></g><defs><mask></mask></defs></svg></g></mask></svg></g></mask></svg></g></mask><linearGradient x1="0" x2="1" y1="0.548" y2="0.55" id="70327185-b249-4ad5-8883-bb3386e1ebc6"><stop stop-color="#ff6cab" offset="0"></stop><stop stop-color="#7366ff" offset="1"></stop></linearGradient></svg><rect width="395.52" height="247.2" fill="none" stroke="none" visibility="hidden"></rect></g></svg></g></svg>